<?xml version="1.0" encoding="UTF-8"?>
<svg version="1.1" xmlns="http://www.w3.org/2000/svg" width="827" height="587">
<path d="M0 0 C2.67521081 2.32365071 5.33998777 4.65897382 8 7 C8.18062988 6.27522461 8.36125977 5.55044922 8.54736328 4.80371094 C9.39225759 1.44868528 10.25849709 -1.90049295 11.125 -5.25 C11.40859375 -6.38953125 11.6921875 -7.5290625 11.984375 -8.703125 C15.28631665 -21.33664089 20.08739591 -33.88608416 31.69335938 -41.04443359 C39.76826105 -45.60766179 47.57325658 -49.04741594 57 -48 C60.33316865 -46.65254884 61.59244797 -45.91099865 63.0625 -42.625 C63 -40 63 -40 61.71484375 -37.33984375 C57.4092227 -33.62895597 52.96680465 -34.62405189 47.5 -34.9375 C45.42800127 -35.0486368 43.35494202 -35.14182643 41.28125 -35.21484375 C40.36408203 -35.26761475 39.44691406 -35.32038574 38.50195312 -35.37475586 C35.0995321 -34.86512312 34.07508574 -33.70334343 32 -31 C27.80537273 -21.26747583 26.09463891 -10.12955862 23.8125 0.1875 C23.28103315 2.57657231 22.74806504 4.96528451 22.21208191 7.35334778 C21.88202941 8.82511729 21.55469202 10.29749903 21.23042297 11.77055359 C20.11175361 16.77649278 20.11175361 16.77649278 19 19 C23.32879546 16.74149802 26.95114399 14.27585272 30.6875 11.125 C37.36386397 5.68197961 45.04950481 0.14580336 54 1 C56.9375 2.8125 56.9375 2.8125 59 6 C59.56627144 15.0238748 56.23173096 23.92348086 53.625 32.4375 C48.01093777 48.92971042 48.01093777 48.92971042 46 66 C50.93777484 63.90144569 54.25585273 61.09662742 58.0703125 57.328125 C60 56 60 56 62.2421875 56.296875 C63.11230469 56.64492188 63.11230469 56.64492188 64 57 C64 58.32 64 59.64 64 61 C64.45159338 65.14954674 67.00505154 67.58189786 69.6875 70.5625 C110.76541275 117.82520769 141.18694674 178.29042546 152 240 C152.13132324 240.72316406 152.26264648 241.44632812 152.39794922 242.19140625 C158.90962736 279.52624528 153.07622643 319.47854415 132.03125 351.28515625 C111.57366714 378.62750257 82.19176247 392.36139276 49.0625 397.4375 C42.76428828 398.42368153 37.78805963 400.31157538 32.2109375 403.3828125 C18.90157123 410.08606996 3.89947646 412.9769524 -10.75 414.875 C-16.06314286 415.65615466 -20.21140563 417.27872498 -25.00390625 419.63671875 C-70.24317194 440.22146937 -126.97005492 429.89348253 -171.68359375 413.44921875 C-218.04745784 395.77277111 -260.00918207 369.75429515 -298 338 C-298.5161084 337.57025879 -299.0322168 337.14051758 -299.56396484 336.69775391 C-312.84621452 325.6047553 -325.36168031 313.70285251 -337.625 301.5 C-338.26356934 300.86610352 -338.90213867 300.23220703 -339.56005859 299.57910156 C-343.9075831 295.21669219 -347.98861622 290.67164997 -352 286 C-352.96197443 284.8943005 -353.92419992 283.78881937 -354.88671875 282.68359375 C-380.37528874 253.21735061 -403.10227411 221.25826474 -420.00537109 186.05419922 C-421.04235858 183.91251717 -422.10767617 181.78647218 -423.17578125 179.66015625 C-435.53097582 154.74335575 -444.53256246 127.47313742 -449 100 C-449.17877686 98.91130615 -449.35755371 97.8226123 -449.54174805 96.70092773 C-450.92719228 87.44467915 -451.34178967 78.3956419 -451.31567383 69.04907227 C-451.31251621 66.69955829 -451.33608201 64.3513128 -451.36132812 62.00195312 C-451.50091413 28.6901752 -440.34758951 -2.0794635 -417 -26 C-416.40703125 -26.65484375 -415.8140625 -27.3096875 -415.203125 -27.984375 C-398.50954421 -46.00021962 -373.4506722 -53.97509455 -350.04296875 -58.10546875 C-348.36194839 -58.40347226 -346.68095892 -58.70165009 -345 -59 C-344.13133301 -59.15122314 -343.26266602 -59.30244629 -342.36767578 -59.45825195 C-337.38187259 -60.37792228 -333.10429167 -61.60918366 -328.5 -63.8125 C-317.38199483 -68.74581398 -305.96847054 -71.66829778 -293.9375 -73.3125 C-286.66238611 -74.33739693 -280.84800061 -76.64610839 -274.31958008 -79.9453125 C-266.79884096 -83.71393897 -259.17104933 -86.06859301 -251 -88 C-250.34032227 -88.16371094 -249.68064453 -88.32742187 -249.00097656 -88.49609375 C-161.31240059 -109.29044494 -64.59239776 -54.42764275 0 0 Z M-222.20605469 -83.87548828 C-237.00056011 -82.96141797 -252.28973112 -80.97060097 -266 -75 C-266 -74.67 -266 -74.34 -266 -74 C-265.38817871 -73.96036133 -264.77635742 -73.92072266 -264.14599609 -73.87988281 C-194.81129028 -69.20679335 -130.95445894 -39.70401833 -76 2 C-78.29679019 13.8304609 -81.77753202 25.37253803 -85.125 36.9375 C-86.02576133 40.0501167 -86.92382459 43.1634939 -87.8203125 46.27734375 C-88.12656052 47.33054054 -88.12656052 47.33054054 -88.43899536 48.40501404 C-90.19011837 54.48838631 -91.12443001 59.6540695 -91 66 C-87.34051761 65.40117561 -85.31764099 63.85446713 -82.5 61.5 C-79.68235901 59.14553287 -77.65948239 57.59882439 -74 57 C-74 61 -74 61 -76 64 C-75.58226318 64.4125 -75.16452637 64.825 -74.73413086 65.25 C-71.39760401 68.55015516 -68.07035102 71.85935153 -64.7578125 75.18359375 C-64.12762207 75.81579834 -63.49743164 76.44800293 -62.84814453 77.09936523 C-59.7529968 80.28242007 -56.85023628 83.59830496 -54 87 C-53.06910244 88.08062959 -52.136655 89.15992495 -51.203125 90.23828125 C-31.35068463 113.19383966 -14.26337715 137.78975486 1 164 C1.4655127 164.7950293 1.93102539 165.59005859 2.41064453 166.40917969 C13.84509822 186.07725243 22.83862715 206.6838599 30 228.25 C30.22574707 228.92920502 30.45149414 229.60841003 30.68408203 230.30819702 C33.81139123 239.78519229 36.52180022 249.33294415 39 259 C41.97 258.34 44.94 257.68 48 257 C48 258.98 48 260.96 48 263 C48.763125 262.360625 49.52625 261.72125 50.3125 261.0625 C54.12704008 258.13506226 57.21201896 257.65317059 61.99609375 257.71484375 C65.21688151 258.17316248 66.84751549 259.65183508 69 262 C70.02271452 265.0480582 70.18622472 268.00437895 70.31640625 271.203125 C70.35830078 272.1828125 70.40019531 273.1625 70.44335938 274.171875 C70.48267578 275.18765625 70.52199219 276.2034375 70.5625 277.25 C70.60568359 278.28125 70.64886719 279.3125 70.69335938 280.375 C70.79925682 282.9165387 70.90133443 285.45817196 71 288 C72.65 288 74.3 288 76 288 C76 288.99 76 289.98 76 291 C71.71 291 67.42 291 63 291 C63.33 290.01 63.66 289.02 64 288 C64.25257326 284.71272075 64.23124619 281.42098276 64.25 278.125 C64.2809375 276.77728516 64.2809375 276.77728516 64.3125 275.40234375 C64.34145359 270.50194815 64.35042545 266.89437687 61 263 C57.17332208 261.63940341 55.47736321 261.81085609 51.6875 263.3125 C48.92091219 264.72511938 48.92091219 264.72511938 48 267 C47.91599471 268.59447464 47.89272533 270.19240545 47.90234375 271.7890625 C47.90717773 273.20058594 47.90717773 273.20058594 47.91210938 274.640625 C47.92048828 275.62546875 47.92886719 276.6103125 47.9375 277.625 C47.94426758 279.11386719 47.94426758 279.11386719 47.95117188 280.6328125 C47.96297855 283.0886016 47.979446 285.54427104 48 288 C48.804375 288.12375 49.60875 288.2475 50.4375 288.375 C51.283125 288.58125 52.12875 288.7875 53 289 C53.33 289.66 53.66 290.32 54 291 C50.7 291 47.4 291 44 291 C43.98541748 291.7434668 43.97083496 292.48693359 43.95581055 293.25292969 C43.21701183 327.13846786 39.05350319 357.50236094 18.78515625 385.5234375 C17.00962829 387.84722522 17.00962829 387.84722522 16 390 C20.6635131 390.44252314 25.32143954 390.76438904 30 391 C30.97582031 391.05285156 31.95164062 391.10570312 32.95703125 391.16015625 C41.52520195 391.0472521 46.8481731 386.54428623 53 381 C53.53947266 380.51950195 54.07894531 380.03900391 54.63476562 379.54394531 C76.37193626 359.86299352 88.4828809 332.01066943 90.12451172 302.78320312 C90.23456992 298.85021415 90.17309879 294.92998362 90 291 C88.02 291 86.04 291 84 291 C85.39195915 288.2160817 87.15575779 288.02101003 90 287 C90.09928082 279.24506486 90.06059488 271.68931285 89 264 C87.35 263.67 85.7 263.34 84 263 C84 262.01 84 261.02 84 260 C85.32 259.67 86.64 259.34 88 259 C83.15611029 225.46183031 70.63961774 193.87480598 55 164 C54.59942383 163.23461914 54.19884766 162.46923828 53.78613281 161.68066406 C40.54477517 136.58378988 24.37433458 113.32893816 6.4375 91.375 C5.36048828 90.04082031 5.36048828 90.04082031 4.26171875 88.6796875 C2.6862312 86.81304767 1.0353859 85.00855183 -0.66796875 83.2578125 C-1.52003906 82.34773437 -2.37210937 81.43765625 -3.25 80.5 C-4.03890625 79.7059375 -4.8278125 78.911875 -5.640625 78.09375 C-7.24336386 74.44613742 -6.88501387 73.69793371 -5.76464844 70.00537109 C-5.47748962 69.02457581 -5.19033081 68.04378052 -4.89447021 67.03326416 C-4.59929504 66.03228699 -4.30411987 65.03130981 -4 64 C-3.51421103 62.17446807 -3.03748004 60.3464991 -2.5703125 58.51611328 C-2.33417236 57.59210724 -2.09803223 56.6681012 -1.85473633 55.71609497 C-0.81828406 51.60318432 0.19472734 47.48472491 1.20068359 43.36425781 C1.73688873 41.19126766 2.28423892 39.02099955 2.84228516 36.85351562 C3.65178473 33.70277445 4.42328857 30.54480033 5.1875 27.3828125 C5.44450684 26.4150589 5.70151367 25.4473053 5.96630859 24.45022583 C6.5633193 21.88838742 7.03473143 19.63046081 7 17 C4.95917361 13.91750962 4.95917361 13.91750962 2 12 C1.47237061 11.51200928 0.94474121 11.02401855 0.40112305 10.52124023 C-8.73617789 2.54637224 -18.18645579 -4.87636867 -28 -12 C-28.67933594 -12.495 -29.35867188 -12.99 -30.05859375 -13.5 C-84.45670613 -52.98747666 -153.05324165 -87.7785355 -222.20605469 -83.87548828 Z M-294 -59 C-294 -58.34 -294 -57.68 -294 -57 C-293.35264893 -56.87995605 -292.70529785 -56.75991211 -292.03833008 -56.63623047 C-266.47069576 -51.84328535 -240.64170027 -45.66157542 -217.19799805 -34.04516602 C-213.05971527 -32.08984828 -210.41231446 -31.73557556 -206 -33 C-205.67 -33.33 -205.34 -33.66 -205 -34 C-205.67233555 -27.63447466 -206.5057321 -21.31423074 -207.453125 -14.984375 C-207.74394164 -13.01106487 -208.0342006 -11.03767249 -208.32397461 -9.06420898 C-208.47526825 -8.03431854 -208.62656189 -7.0044281 -208.78244019 -5.94332886 C-212.43184849 18.98131283 -215.40064161 43.94583338 -218 69 C-216.56486782 69.33802841 -215.12850804 69.67084774 -213.69165039 70.00146484 C-212.89191299 70.18736176 -212.0921756 70.37325867 -211.26820374 70.56478882 C-208.53764052 71.08871514 -206.18516082 71.01199448 -203.4375 70.625 C-202.59058594 70.51414063 -201.74367188 70.40328125 -200.87109375 70.2890625 C-199.94490234 70.14597656 -199.94490234 70.14597656 -199 70 C-199.33 71.98 -199.66 73.96 -200 76 C-200.68320312 75.9278125 -201.36640625 75.855625 -202.0703125 75.78125 C-213.04127256 74.77113603 -223.99260228 74.90366489 -235 75 C-234.65066406 73.85402344 -234.30132812 72.70804688 -233.94140625 71.52734375 C-233.48150708 69.9974751 -233.02188646 68.46752269 -232.5625 66.9375 C-232.33240234 66.18533203 -232.10230469 65.43316406 -231.86523438 64.65820312 C-229.69207204 57.38283356 -228.86702429 50.5796152 -229 43 C-233.12724012 42.86996892 -237.24859329 42.81389626 -241.37792969 42.82299805 C-242.77855754 42.81606903 -244.17924027 42.78976826 -245.57910156 42.74291992 C-254.24614496 42.37752608 -254.24614496 42.37752608 -261.63305664 46.35522461 C-263.67242799 49.15381398 -265.35321595 51.95745491 -267 55 C-268.12617843 56.6593443 -269.26906602 58.30763392 -270.4375 59.9375 C-271.28441406 61.15179688 -271.28441406 61.15179688 -272.1484375 62.390625 C-275.66074891 67.3404647 -279.30430513 72.18605059 -283 77 C-283.51304687 77.68320313 -284.02609375 78.36640625 -284.5546875 79.0703125 C-289.47955154 85.27508471 -296.3971271 90.60629189 -304 93 C-307.2265625 93.30078125 -307.2265625 93.30078125 -310.625 93.3125 C-311.75164062 93.32925781 -312.87828125 93.34601563 -314.0390625 93.36328125 C-317 93 -317 93 -318.8984375 91.91796875 C-320.58106131 88.98829396 -320.18683087 86.30067877 -320 83 C-318.69804687 83.04640625 -317.39609375 83.0928125 -316.0546875 83.140625 C-314.32814804 83.17815847 -312.60158364 83.21455693 -310.875 83.25 C-309.59109375 83.30027344 -309.59109375 83.30027344 -308.28125 83.3515625 C-301.11843845 83.4617596 -297.80127823 81.44009393 -292.39453125 76.73046875 C-287.45286356 71.86356154 -283.00128833 66.93196086 -278.94140625 61.3203125 C-278.4746347 60.67919022 -278.00786316 60.03806793 -277.52694702 59.3775177 C-270.89301322 50.18007785 -264.7199161 40.66605448 -258.48486328 31.1965332 C-248.23937507 15.65413064 -237.61287439 0.44744189 -226.12109375 -14.203125 C-223.9479302 -17.06865926 -221.96421527 -19.98909405 -220 -23 C-238.72753628 -22.36451765 -238.72753628 -22.36451765 -255 -14 C-258.07792451 -10.16813944 -259.06216355 -7.22254985 -258.8125 -2.3125 C-258.31657751 -0.29066216 -257.81740345 1.73038621 -257.3125 3.75 C-257 6 -257 6 -259 9 C-262.625 9.1875 -262.625 9.1875 -266 9 C-268.50759264 5.23861105 -268.60994681 1.35144979 -268 -3 C-265.56302793 -11.25304458 -262.03163026 -17.37859552 -254.515625 -21.8046875 C-244.97397753 -26.33845167 -234.39162857 -27.79975111 -224 -29 C-242.57634439 -41.38422959 -269.76847067 -45.97297414 -291.3125 -50.0625 C-292.37299561 -50.29807617 -293.43349121 -50.53365234 -294.52612305 -50.77636719 C-297.59305941 -51.29226802 -299.93601426 -51.54791814 -303 -51 C-306.43238413 -48.50765881 -308.64464893 -45.49546472 -311 -42 C-311.72038452 -41.00770386 -311.72038452 -41.00770386 -312.45532227 -39.99536133 C-313.75074318 -38.15846176 -314.94980026 -36.29076679 -316.125 -34.375 C-316.54604004 -33.69187744 -316.96708008 -33.00875488 -317.40087891 -32.30493164 C-324.16931764 -21.00816557 -328.06395956 -8.79376077 -331 4 C-331.21527344 4.93585938 -331.43054688 5.87171875 -331.65234375 6.8359375 C-344.50668282 72.32738764 -312.13443721 142.83789305 -276.875 196 C-270.88724665 204.90181549 -264.56767392 213.51973711 -258 222 C-257.28650391 222.92981689 -257.28650391 222.92981689 -256.55859375 223.87841797 C-251.34453316 230.67125917 -246.01748792 237.24365516 -240.203125 243.5390625 C-236.94892655 247.17407141 -233.95143498 251.00649974 -230.9453125 254.84765625 C-229.10531834 257.23810313 -229.10531834 257.23810313 -226 258 C-225.31203492 259.32246976 -224.64896594 260.65796221 -224 262 C-222.69302227 263.47913061 -221.32930723 264.90899005 -219.9296875 266.30078125 C-218.70765625 267.51991211 -218.70765625 267.51991211 -217.4609375 268.76367188 C-216.60757813 269.60478516 -215.75421875 270.44589844 -214.875 271.3125 C-214.04484375 272.14201172 -213.2146875 272.97152344 -212.359375 273.82617188 C-207.94930044 278.20514089 -203.46333817 282.43475518 -198.75146484 286.48706055 C-196.4034162 288.5153373 -194.14408825 290.63412993 -191.875 292.75 C-186.12872087 297.98392228 -180.09166465 302.75437553 -173.93505859 307.49316406 C-171.94429935 309.04337426 -169.9805604 310.62332474 -168.01953125 312.2109375 C-149.65383359 326.96977463 -129.63562421 339.65993615 -109 351 C-108.19884766 351.44504883 -107.39769531 351.89009766 -106.57226562 352.34863281 C-79.04088334 367.55880525 -48.97252786 379.98928083 -18 386 C-17.26007813 386.14663086 -16.52015625 386.29326172 -15.7578125 386.44433594 C-13.46582009 386.89289506 -11.17164664 387.32595003 -8.875 387.75 C-7.84415283 387.94215088 -7.84415283 387.94215088 -6.79248047 388.13818359 C-2.4716085 388.89070097 1.62678543 389.44252766 6 389 C23.52475817 376.54511334 31.6754082 347.79923936 35.0859375 328.05078125 C36.22919993 320.31381923 36.39680228 312.61606299 36.375 304.8125 C36.37445618 304.07421967 36.37391235 303.33593933 36.37335205 302.57528687 C36.15735421 238.2571771 5.04997384 176.95458551 -32 126 C-32.52335937 125.27699707 -33.04671875 124.55399414 -33.5859375 123.80908203 C-43.10637833 110.70941456 -53.5400521 98.55830623 -64.53515625 86.68359375 C-66.64816148 84.3830635 -68.71105034 82.05340817 -70.75 79.6875 C-73.99150439 75.94368016 -77.4512925 72.45163039 -81 69 C-83.99306696 70.05637657 -86.19138301 71.14353726 -88.75 73.0625 C-92.72551162 75.43251654 -96.36752544 76.26471283 -101 76 C-101.99 75.34 -102.98 74.68 -104 74 C-105.3005127 65.90352552 -103.39896986 57.81011328 -101.375 50 C-101.10864746 48.92782227 -100.84229492 47.85564453 -100.56787109 46.75097656 C-98.57167058 38.8527116 -96.32792109 31.03543218 -93.82958984 23.28125 C-92.60090282 19.40482896 -91.65354557 16.12445756 -92 12 C-96.45673159 12.49871064 -98.57687178 14.02004362 -101.8125 17.0625 C-102.99779297 18.16271484 -102.99779297 18.16271484 -104.20703125 19.28515625 C-104.79871094 19.85105469 -105.39039063 20.41695313 -106 21 C-107.32 20.34 -108.64 19.68 -110 19 C-104.49525118 12.08377712 -98.45480379 6.04610681 -90 3 C-91.46251801 -0.67052573 -93.26949959 -2.1608899 -96.55859375 -4.28515625 C-97.95851563 -5.19624146 -97.95851563 -5.19624146 -99.38671875 -6.12573242 C-100.39347656 -6.76486572 -101.40023437 -7.40399902 -102.4375 -8.0625 C-103.47648438 -8.72934814 -104.51546875 -9.39619629 -105.5859375 -10.08325195 C-114.89617138 -16.01681671 -124.32567062 -21.68150168 -134 -27 C-135.32136963 -27.72848145 -135.32136963 -27.72848145 -136.66943359 -28.47167969 C-167.81241935 -45.5065045 -261.05896028 -91.24016653 -294 -59 Z M-309.125 -62.625 C-310.20007813 -62.36976562 -311.27515625 -62.11453125 -312.3828125 -61.8515625 C-313.24648438 -61.57054687 -314.11015625 -61.28953125 -315 -61 C-315.33 -60.34 -315.66 -59.68 -316 -59 C-309.33761611 -58.23723432 -309.33761611 -58.23723432 -303.15625 -60.11328125 C-301.64326108 -61.60903828 -301.64326108 -61.60903828 -300 -64 C-303.26952312 -64 -305.95027306 -63.39764439 -309.125 -62.625 Z M-345 -46 C-345.90621094 -45.30003906 -346.81242187 -44.60007812 -347.74609375 -43.87890625 C-372.25279689 -24.69251859 -384.56314219 1.68664279 -389 32 C-389.50208931 36.33356697 -389.82096649 40.64165296 -390 45 C-390.04125 45.89074219 -390.0825 46.78148437 -390.125 47.69921875 C-391.55156994 110.20081432 -362.03654991 173.37931214 -326 223 C-325.45633789 223.75716309 -324.91267578 224.51432617 -324.35253906 225.29443359 C-317.73032182 234.50755178 -310.96524324 243.50654115 -303.5234375 252.07421875 C-301.05318301 254.93833734 -298.67802228 257.86165224 -296.3125 260.8125 C-293.11831705 264.74117422 -289.78945732 268.37089272 -286.1171875 271.85546875 C-284.23812475 273.75879984 -282.5001109 275.71043807 -280.75390625 277.734375 C-277.02844936 282.0240999 -273.090406 286.05789914 -269.0625 290.0625 C-268.39798828 290.73087891 -267.73347656 291.39925781 -267.04882812 292.08789062 C-263.09966714 296.02939078 -259.03975493 299.78128554 -254.81518555 303.42553711 C-252.44904562 305.47788901 -250.16564604 307.61402781 -247.875 309.75 C-242.12872087 314.98392228 -236.09166465 319.75437553 -229.93505859 324.49316406 C-227.94429935 326.04337426 -225.9805604 327.62332474 -224.01953125 329.2109375 C-205.7708125 343.87705963 -185.93453462 356.437681 -165.41455078 367.67529297 C-163.09893644 368.94572001 -160.79754096 370.23929861 -158.49609375 371.53515625 C-120.88615718 392.36073038 -77.07477143 406.73254572 -33.9385376 407.58062744 C-31.93230134 407.62376784 -29.92675625 407.69598085 -27.92138672 407.76904297 C-17.60356461 407.82334033 -11.08707732 404.93380658 -3.69873047 397.76806641 C-3.13814941 397.18460449 -2.57756836 396.60114258 -2 396 C-2.73710205 395.86013672 -3.4742041 395.72027344 -4.23364258 395.57617188 C-71.23173348 382.70127806 -133.50225198 352.34223812 -185.10546875 307.49609375 C-187.79314256 305.17838314 -190.53557505 302.95919807 -193.3125 300.75 C-202.93724656 292.92017681 -211.98216005 284.24480683 -220.54589844 275.27197266 C-221.92890307 273.78053425 -221.92890307 273.78053425 -224 274 C-224.24363281 273.42765625 -224.48726562 272.8553125 -224.73828125 272.265625 C-226.22517298 269.59566462 -227.98083908 267.86170993 -230.1875 265.75 C-233.59932138 262.40846971 -236.84089064 259.02112545 -239.9453125 255.39453125 C-241.57006949 253.50104069 -243.21153005 251.62795011 -244.8671875 249.76171875 C-253.04249423 240.50630031 -260.63649426 230.91019898 -268 221 C-268.53625 220.28473145 -269.0725 219.56946289 -269.625 218.83251953 C-281.7022916 202.68712581 -292.31146005 185.62763736 -301.94824219 167.92285156 C-303.00567787 165.98961957 -304.08408568 164.06914964 -305.1640625 162.1484375 C-330.92594337 115.68106621 -350.80260332 52.34485595 -337 -1 C-336.71793701 -2.16595703 -336.71793701 -2.16595703 -336.43017578 -3.35546875 C-332.27818936 -20.18802466 -325.06543469 -35.46139813 -314.3984375 -49.1640625 C-312.8990098 -50.74793882 -312.8990098 -50.74793882 -313 -52 C-330.20229241 -53.39970898 -330.20229241 -53.39970898 -345 -46 Z M-416.25 -15.75390625 C-438.12797339 7.5341709 -444.73469845 41.04562945 -444 72 C-441.22315063 136.0530711 -410.82795559 199.50869645 -371.47558594 249.12744141 C-369.65248633 251.44100428 -367.8756545 253.78753558 -366.09887695 256.13671875 C-357.80886772 267.06438303 -348.84264571 277.35563541 -339.49511719 287.38720703 C-337.90566897 289.10175551 -336.33131889 290.82940967 -334.7578125 292.55859375 C-326.25884535 301.84836085 -317.29295553 310.50944311 -308 319 C-307.06027344 319.86625 -306.12054688 320.7325 -305.15234375 321.625 C-299.28558231 326.98039554 -293.21376388 332.05350505 -287 337 C-286.04891357 337.75990234 -286.04891357 337.75990234 -285.07861328 338.53515625 C-258.8447056 359.42843551 -231.01177687 377.01419209 -201 392 C-200.25379395 392.37705078 -199.50758789 392.75410156 -198.73876953 393.14257812 C-163.54354718 410.8338586 -123.56187827 422.47004708 -84 422.375 C-83.29498352 422.37578552 -82.58996704 422.37657104 -81.86358643 422.37738037 C-66.25749129 422.35674726 -50.97253454 420.55329133 -36 416 C-36 415.67 -36 415.34 -36 415 C-36.69222656 414.93530518 -37.38445312 414.87061035 -38.09765625 414.80395508 C-114.29747624 407.4939427 -182.04562448 373.35559684 -240.5625 325.0078125 C-241.366875 324.34523438 -242.17125 323.68265625 -243 323 C-243.886875 322.25492187 -244.77375 321.50984375 -245.6875 320.7421875 C-247.78368111 318.79942482 -247.78368111 318.79942482 -250 319 C-250.33 318.01 -250.66 317.02 -251 316 C-252.45340735 314.48785024 -252.45340735 314.48785024 -254.3125 313 C-263.88922668 304.83458041 -272.90231757 296.1972005 -281.8125 287.3125 C-282.70799561 286.42159668 -283.60349121 285.53069336 -284.52612305 284.61279297 C-289.55864738 279.56853781 -294.37755977 274.42089484 -299 269 C-299.94922625 267.91683288 -300.89969369 266.83475187 -301.8515625 265.75390625 C-309.6525597 256.81065496 -316.91790286 247.51985165 -324 238 C-324.54301758 237.27264648 -325.08603516 236.54529297 -325.64550781 235.79589844 C-337.64605535 219.65968983 -348.29962803 202.85468515 -357.83398438 185.15136719 C-358.94959383 183.09300234 -360.08872687 181.04957165 -361.234375 179.0078125 C-376.34361658 151.75297514 -387.16271169 121.58879309 -393 91 C-393.16226074 90.21189941 -393.32452148 89.42379883 -393.49169922 88.61181641 C-398.47063138 63.96379 -398.55628254 35.30726936 -392 11 C-391.81808105 10.3090625 -391.63616211 9.618125 -391.44873047 8.90625 C-385.80387514 -11.75624101 -374.51216383 -29.42638726 -359 -44 C-357.32866483 -45.66198505 -355.66077744 -47.32746484 -354 -49 C-377.47715374 -49 -400.56447116 -31.41220327 -416.25 -15.75390625 Z M-221 -12 C-221.92296924 -10.85645772 -222.80090092 -9.67653331 -223.66015625 -8.484375 C-224.20236816 -7.73397949 -224.74458008 -6.98358398 -225.30322266 -6.21044922 C-225.88378418 -5.39850098 -226.4643457 -4.58655273 -227.0625 -3.75 C-227.65595215 -2.92387207 -228.2494043 -2.09774414 -228.86083984 -1.24658203 C-232.66473617 4.0709934 -236.36482094 9.43562771 -239.9453125 14.90625 C-241.57918261 17.36637382 -243.24056372 19.79677315 -244.9296875 22.21875 C-245.43741699 22.94819824 -245.94514648 23.67764648 -246.46826172 24.42919922 C-247.47397927 25.87093075 -248.48331037 27.3101496 -249.49658203 28.74658203 C-252.08895973 32.05968346 -252.08895973 32.05968346 -253 36 C-249.6046836 36.19777236 -246.20874308 36.38139685 -242.8125 36.5625 C-241.85279297 36.61857422 -240.89308594 36.67464844 -239.90429688 36.73242188 C-238.97294922 36.78076172 -238.04160156 36.82910156 -237.08203125 36.87890625 C-236.22843018 36.9260376 -235.3748291 36.97316895 -234.49536133 37.02172852 C-231.87646242 36.99892429 -229.54596848 36.59213206 -227 36 C-226.85900879 35.00782471 -226.71801758 34.01564941 -226.57275391 32.9934082 C-226.04045911 29.2489985 -225.50718107 25.50472933 -224.97363281 21.76049805 C-224.74453091 20.1518112 -224.51568209 18.54308829 -224.28710938 16.93432617 C-222.91524963 7.28016405 -221.51167438 -2.36655032 -220 -12 C-220.33 -12 -220.66 -12 -221 -12 Z M20.7890625 26.71484375 C15.65977757 33.26644132 13.81172176 40.70528419 11.9375 48.6875 C11.550177 50.27618896 11.550177 50.27618896 11.1550293 51.89697266 C10.06753664 56.38240711 9.01151032 60.8715086 8.0546875 65.38671875 C7.80976563 66.53785156 7.56484375 67.68898437 7.3125 68.875 C7.12300781 69.84179688 6.93351562 70.80859375 6.73828125 71.8046875 C6 74 6 74 3 76 C3.69222656 76.77859375 4.38445312 77.5571875 5.09765625 78.359375 C46.01440088 124.92029879 77.62400372 181.57952012 92 242 C93.32 242.33 94.64 242.66 96 243 C96.6875 244.8125 96.6875 244.8125 97 247 C96.505 247.433125 96.01 247.86625 95.5 248.3125 C95.005 248.869375 94.51 249.42625 94 250 C94.23477199 253.64541845 94.23477199 253.64541845 95 257 C95.66 257 96.32 257 97 257 C96.98839844 258.14855469 96.97679687 259.29710937 96.96484375 260.48046875 C96.90104536 269.71728006 97.08973508 278.79982246 98 288 C98.639375 288.12375 99.27875 288.2475 99.9375 288.375 C100.9584375 288.684375 100.9584375 288.684375 102 289 C102.33 289.66 102.66 290.32 103 291 C101.35 291 99.7 291 98 291 C97.96036133 291.5669458 97.92072266 292.1338916 97.87988281 292.71801758 C95.46621405 325.85262237 87.59667373 360.51737588 61.3125 383.3125 C60.66925781 383.82425781 60.02601563 384.33601563 59.36328125 384.86328125 C58.68845703 385.42595703 58.68845703 385.42595703 58 386 C58 386.33 58 386.66 58 387 C64.61894499 386.49135852 70.19050576 385.18672329 76.375 382.8125 C77.20644531 382.49788818 78.03789063 382.18327637 78.89453125 381.85913086 C89.6802829 377.68722399 98.89275664 372.12267988 108 365 C108.76054688 364.40703125 109.52109375 363.8140625 110.3046875 363.203125 C131.43189616 345.60964875 142.64970114 318.33122003 145.79931641 291.53393555 C152.00057884 213.23356716 114.06045106 140.00394555 67 80 C66.1702938 78.91427574 65.34086488 77.82833953 64.51171875 76.7421875 C63.72410156 75.73414063 62.93648437 74.72609375 62.125 73.6875 C61.42632813 72.78386719 60.72765625 71.88023437 60.0078125 70.94921875 C57.98805932 68.53562671 57.98805932 68.53562671 54 69 C51.89131286 70.27115299 51.89131286 70.27115299 49.8125 71.9375 C45.5152965 74.93488823 41.33088966 76.78143563 36 76 C33.38526095 74.00296307 33.00949446 73.03526515 32.125 69.75 C31.00776555 57.19745874 36.84275887 43.06089107 40.39501953 31.1496582 C41.01661324 29.05658006 41.62611419 26.96026591 42.234375 24.86328125 C42.59756836 23.63907471 42.96076172 22.41486816 43.33496094 21.15356445 C43.95716228 18.20313318 44.07300416 16.76191272 43 14 C33.59117848 13.34547329 27.18198796 20.52594783 20.7890625 26.71484375 Z M40 263 C41 267 41 267 41 267 Z M1.22265625 402.43359375 C0.61744141 403.20896484 0.61744141 403.20896484 0 404 C3.2363856 405.0787952 4.0071315 404.95182872 7.16015625 404.07421875 C7.95357422 403.85443359 8.74699219 403.63464844 9.56445312 403.40820312 C10.80098633 403.05145508 10.80098633 403.05145508 12.0625 402.6875 C13.30483398 402.3481543 13.30483398 402.3481543 14.57226562 402.00195312 C19.226927 400.80820218 19.226927 400.80820218 23 398 C11.01234998 396.03739239 11.01234998 396.03739239 1.22265625 402.43359375 Z " fill="#1C3868" transform="translate(473,123)"/>
<path d="M0 0 C-1.12929018 3.38787053 -1.96342837 4.04030919 -4.75 6.125 C-5.42546875 6.64320312 -6.1009375 7.16140625 -6.796875 7.6953125 C-9.2693045 9.15948174 -11.17176348 9.55033981 -14 10 C-16.10677673 10.51017304 -18.21091862 11.03133108 -20.3125 11.5625 C-21.38113281 11.83191406 -22.44976562 12.10132813 -23.55078125 12.37890625 C-24.35902344 12.58386719 -25.16726562 12.78882813 -26 13 C-22.7 13.33 -19.4 13.66 -16 14 C-21.75 20.875 -21.75 20.875 -24 22 C-25.5524829 22.01361509 -27.10574119 21.96616022 -28.65625 21.88671875 C-43.4466062 21.07625446 -43.4466062 21.07625446 -56 28 C-56.9178125 28.7115625 -57.835625 29.423125 -58.78125 30.15625 C-61.59381271 32.36396052 -64.30712476 34.64841652 -67 37 C-67.63808594 37.55300781 -68.27617188 38.10601562 -68.93359375 38.67578125 C-90.09761683 58.37347479 -98.85130114 90.03636205 -100 118 C-100.04125 118.89074219 -100.0825 119.78148437 -100.125 120.69921875 C-101.55156994 183.20081432 -72.03654991 246.37931214 -36 296 C-35.45633789 296.75716309 -34.91267578 297.51432617 -34.35253906 298.29443359 C-27.73032182 307.50755178 -20.96524324 316.50654115 -13.5234375 325.07421875 C-11.05318301 327.93833734 -8.67802228 330.86165224 -6.3125 333.8125 C-3.03894793 337.83879399 0.40814557 341.52084599 4.12890625 345.1328125 C5.87740824 346.87766417 7.47080702 348.67514904 9.0625 350.5625 C16.66958537 359.39653462 25.15872117 367.83208674 34.0703125 375.34765625 C36.48534193 377.41558631 38.79565725 379.58607434 41.125 381.75 C46.87127913 386.98392228 52.90833535 391.75437553 59.06494141 396.49316406 C61.05570065 398.04337426 63.0194396 399.62332474 64.98046875 401.2109375 C83.2291875 415.87705963 103.06546538 428.437681 123.58544922 439.67529297 C125.90106356 440.94572001 128.20245904 442.23929861 130.50390625 443.53515625 C168.11384282 464.36073038 211.92522857 478.73254572 255.0614624 479.58062744 C257.06769866 479.62376784 259.07324375 479.69598085 261.07861328 479.76904297 C271.4650501 479.82370141 277.21220424 476.66074039 285.14013672 470.27661133 C287.69514944 468.52284899 289.23241851 468.87574478 292.25 469.3125 C293.58804688 469.49232422 293.58804688 469.49232422 294.953125 469.67578125 C295.62859375 469.78277344 296.3040625 469.88976562 297 470 C294.66666667 472.33333333 292.33333333 474.66666667 290 477 C292.16828768 476.57060595 294.33456386 476.13105047 296.5 475.6875 C297.7065625 475.44386719 298.913125 475.20023438 300.15625 474.94921875 C302.96214661 474.25629916 305.17273939 473.54378798 307.78125 472.4375 C312.76109644 470.49383545 317.70683881 470.44026596 323 470.3125 C323.96550781 470.27833984 324.93101562 470.24417969 325.92578125 470.20898438 C328.28373782 470.12727301 330.64135863 470.05787881 333 470 C316.77508594 480.81660937 297.32820281 485.40314805 278.25 487.875 C272.93685714 488.65615466 268.78859437 490.27872498 263.99609375 492.63671875 C218.75682806 513.22146937 162.02994508 502.89348253 117.31640625 486.44921875 C70.95254216 468.77277111 28.99081793 442.75429515 -9 411 C-9.5161084 410.57025879 -10.0322168 410.14051758 -10.56396484 409.69775391 C-23.84621452 398.6047553 -36.36168031 386.70285251 -48.625 374.5 C-49.26356934 373.86610352 -49.90213867 373.23220703 -50.56005859 372.57910156 C-54.9075831 368.21669219 -58.98861622 363.67164997 -63 359 C-63.96197443 357.8943005 -64.92419992 356.78881937 -65.88671875 355.68359375 C-91.37528874 326.21735061 -114.10227411 294.25826474 -131.00537109 259.05419922 C-132.04235858 256.91251717 -133.10767617 254.78647218 -134.17578125 252.66015625 C-146.53097582 227.74335575 -155.53256246 200.47313742 -160 173 C-160.17877686 171.91130615 -160.35755371 170.8226123 -160.54174805 169.70092773 C-161.92719228 160.44467915 -162.34178967 151.3956419 -162.31567383 142.04907227 C-162.31251621 139.69955829 -162.33608201 137.3513128 -162.36132812 135.00195312 C-162.50091413 101.6901752 -151.34758951 70.9205365 -128 47 C-127.40703125 46.34515625 -126.8140625 45.6903125 -126.203125 45.015625 C-109.50954421 26.99978038 -84.4506722 19.02490545 -61.04296875 14.89453125 C-59.36194839 14.59652774 -57.68095892 14.29834991 -56 14 C-55.13133301 13.84877686 -54.26266602 13.69755371 -53.36767578 13.54174805 C-48.38187259 12.62207772 -44.10429167 11.39081634 -39.5 9.1875 C-33.92279892 6.69243636 -28.39159808 4.80167764 -22.5 3.1875 C-21.74654297 2.98084717 -20.99308594 2.77419434 -20.21679688 2.5612793 C-13.38073994 0.74459258 -7.07022523 -0.12190043 0 0 Z M-127.25 57.24609375 C-149.12797339 80.5341709 -155.73469845 114.04562945 -155 145 C-152.22315063 209.0530711 -121.82795559 272.50869645 -82.47558594 322.12744141 C-80.65248633 324.44100428 -78.8756545 326.78753558 -77.09887695 329.13671875 C-68.80886772 340.06438303 -59.84264571 350.35563541 -50.49511719 360.38720703 C-48.90566897 362.10175551 -47.33131889 363.82940967 -45.7578125 365.55859375 C-37.25884535 374.84836085 -28.29295553 383.50944311 -19 392 C-18.06027344 392.86625 -17.12054688 393.7325 -16.15234375 394.625 C-10.28558231 399.98039554 -4.21376388 405.05350505 2 410 C2.95108643 410.75990234 2.95108643 410.75990234 3.92138672 411.53515625 C30.1552944 432.42843551 57.98822313 450.01419209 88 465 C88.74620605 465.37705078 89.49241211 465.75410156 90.26123047 466.14257812 C125.45645282 483.8338586 165.43812173 495.47004708 205 495.375 C205.70501648 495.37578552 206.41003296 495.37657104 207.13641357 495.37738037 C222.74250871 495.35674726 238.02746546 493.55329133 253 489 C253 488.67 253 488.34 253 488 C252.30777344 487.93530518 251.61554688 487.87061035 250.90234375 487.80395508 C174.70252376 480.4939427 106.95437552 446.35559684 48.4375 398.0078125 C47.633125 397.34523438 46.82875 396.68265625 46 396 C45.113125 395.25492187 44.22625 394.50984375 43.3125 393.7421875 C41.21631889 391.79942482 41.21631889 391.79942482 39 392 C38.67 391.01 38.34 390.02 38 389 C36.54659265 387.48785024 36.54659265 387.48785024 34.6875 386 C25.11077332 377.83458041 16.09768243 369.1972005 7.1875 360.3125 C6.29200439 359.42159668 5.39650879 358.53069336 4.47387695 357.61279297 C-0.55864738 352.56853781 -5.37755977 347.42089484 -10 342 C-10.94922625 340.91683288 -11.89969369 339.83475187 -12.8515625 338.75390625 C-20.6525597 329.81065496 -27.91790286 320.51985165 -35 311 C-35.54301758 310.27264648 -36.08603516 309.54529297 -36.64550781 308.79589844 C-48.64605535 292.65968983 -59.29962803 275.85468515 -68.83398438 258.15136719 C-69.94959383 256.09300234 -71.08872687 254.04957165 -72.234375 252.0078125 C-87.34361658 224.75297514 -98.16271169 194.58879309 -104 164 C-104.16226074 163.21189941 -104.32452148 162.42379883 -104.49169922 161.61181641 C-109.47063138 136.96379 -109.55628254 108.30726936 -103 84 C-102.81808105 83.3090625 -102.63616211 82.618125 -102.44873047 81.90625 C-96.80387514 61.24375899 -85.51216383 43.57361274 -70 29 C-68.32866483 27.33801495 -66.66077744 25.67253516 -65 24 C-88.47715374 24 -111.56447116 41.58779673 -127.25 57.24609375 Z " fill="#1A5C8C" transform="translate(184,50)"/>
<path d="M0 0 C0.97952637 0.11666016 1.95905273 0.23332031 2.96826172 0.35351562 C64.93632154 7.99059678 126.74362595 36.54277285 175 76 C173.33190672 84.59034272 171.03360628 93.008879 168.58984375 101.40625 C168.3752652 102.14439941 168.16068665 102.88254883 167.93960571 103.64306641 C167.05019583 106.69674674 166.15892156 109.74982599 165.25854492 112.80029297 C162.60272868 121.81449664 160.22722002 130.65450954 159 140 C163.7502149 137.47947781 167.48998245 134.85354951 171.32421875 131.07421875 C173 130 173 130 175.20703125 130.33203125 C175.79871094 130.55246094 176.39039063 130.77289063 177 131 C177 135 177 135 175 138 C175.41773682 138.4125 175.83547363 138.825 176.26586914 139.25 C179.60239599 142.55015516 182.92964898 145.85935153 186.2421875 149.18359375 C186.87237793 149.81579834 187.50256836 150.44800293 188.15185547 151.09936523 C191.2470032 154.28242007 194.14976372 157.59830496 197 161 C197.93089756 162.08062959 198.863345 163.15992495 199.796875 164.23828125 C219.64931537 187.19383966 236.73662285 211.78975486 252 238 C252.4655127 238.7950293 252.93102539 239.59005859 253.41064453 240.40917969 C264.88026849 260.1377478 273.87920385 280.80620493 281.0625 302.4375 C281.29251709 303.12951508 281.52253418 303.82153015 281.75952148 304.53451538 C289 326.47200168 289 326.47200168 289 333 C291.97 332.34 294.94 331.68 298 331 C298.33 332.65 298.66 334.3 299 336 C299.8971875 335.0409375 299.8971875 335.0409375 300.8125 334.0625 C304.16227377 330.90414187 307.39480438 330.59823584 311.9296875 330.6484375 C315.70535835 331.28958915 317.41909221 333.2302453 320 336 C321.0883995 339.0730324 321.11649587 341.9627099 321.09765625 345.203125 C321.09443359 346.1828125 321.09121094 347.1625 321.08789062 348.171875 C321.07951172 349.18765625 321.07113281 350.2034375 321.0625 351.25 C321.05798828 352.28125 321.05347656 353.3125 321.04882812 354.375 C321.03706088 356.91672573 321.02062011 359.45833319 321 362 C322.65 362 324.3 362 326 362 C326 362.99 326 363.98 326 365 C321.71 365 317.42 365 313 365 C313.03480469 362.57914062 313.03480469 362.57914062 313.0703125 360.109375 C313.08907168 357.98958796 313.10727172 355.86979591 313.125 353.75 C313.14175781 352.68652344 313.15851563 351.62304688 313.17578125 350.52734375 C313.18222656 349.50253906 313.18867187 348.47773438 313.1953125 347.421875 C313.20578613 346.47924805 313.21625977 345.53662109 313.22705078 344.56542969 C312.98673565 341.85012712 312.52620719 340.25056318 311 338 C307.61974978 336.9483666 305.59574109 336.82789702 302.1875 337.8125 C299.85799264 338.80675769 299.85799264 338.80675769 299 341 C298.84824451 342.59262066 298.75099675 344.19064856 298.68359375 345.7890625 C298.64169922 346.73007812 298.59980469 347.67109375 298.55664062 348.640625 C298.51732422 349.62546875 298.47800781 350.6103125 298.4375 351.625 C298.39431641 352.61757813 298.35113281 353.61015625 298.30664062 354.6328125 C298.20038931 357.08839838 298.09835036 359.54408703 298 362 C299.65 362 301.3 362 303 362 C303.33 362.99 303.66 363.98 304 365 C300.7 365 297.4 365 294 365 C294.01571045 365.7434668 294.0314209 366.48693359 294.04760742 367.25292969 C294.69016321 402.4443815 289.49478577 433.35596382 268 462 C267.67 462.33 267.34 462.66 267 463 C269.31 463.33 271.62 463.66 274 464 C274 464.33 274 464.66 274 465 C266.6094524 465.14715692 259.35575165 464.70776992 252 464 C252.58394531 463.74605469 253.16789062 463.49210937 253.76953125 463.23046875 C267.80961134 455.48506555 275.73490562 433.53881948 280.18359375 419.1796875 C283.93361852 405.80047823 285.41379272 392.69735498 285.375 378.8125 C285.37445618 378.07421967 285.37391235 377.33593933 285.37335205 376.57528687 C285.15735421 312.2571771 254.04997384 250.95458551 217 200 C216.47664062 199.27699707 215.95328125 198.55399414 215.4140625 197.80908203 C205.89467763 184.71086751 195.46205772 172.56139821 184.46875 160.6875 C182.33469105 158.36434722 180.24916551 156.01219165 178.1875 153.625 C175.26891203 150.25522935 172.19062709 147.11280691 169 144 C166.00693304 145.05637657 163.80861699 146.14353726 161.25 148.0625 C157.31128534 150.41057989 153.60652017 151.46065202 149 151 C146.89135742 149.82763672 146.89135742 149.82763672 145 148 C143.49105445 140.13033931 145.58054048 131.923595 147.5625 124.3125 C147.82627441 123.25683838 148.09004883 122.20117676 148.36181641 121.11352539 C151.33986627 109.34632138 154.63708309 97.66221184 158 86 C154.04267488 87.84259407 150.84685429 89.74339177 147.625 92.6875 C146.59246094 93.62142578 146.59246094 93.62142578 145.5390625 94.57421875 C145.03117188 95.04472656 144.52328125 95.51523438 144 96 C142.68 95.34 141.36 94.68 140 94 C140 91 140 91 141.6875 88.9140625 C153.72354949 77 153.72354949 77 160 77 C155.81327998 72.40647317 151.09745648 69.20932603 145.875 65.875 C144.99046143 65.306604 144.10592285 64.73820801 143.19458008 64.15258789 C88.92750475 29.55581928 30.79759904 7.43290105 -34 8 C-33.38390869 7.53883789 -32.76781738 7.07767578 -32.13305664 6.60253906 C-30.70577953 5.53024343 -29.28512076 4.44908389 -27.87109375 3.359375 C-18.77859797 -2.65363987 -10.30280278 -1.30065025 0 0 Z M290 337 C291 341 291 341 291 341 Z " fill="#1B82AA" transform="translate(223,49)"/>
<path d="M0 0 C-9.71428571 8 -9.71428571 8 -13 8 C-13.33 8.99 -13.66 9.98 -14 11 C-14.54785156 11.01417969 -15.09570312 11.02835938 -15.66015625 11.04296875 C-39.96985672 12.50550357 -62.97862131 28.03140085 -79.125 45.25 C-100.37640707 70.00767544 -106.68678937 104.2468174 -104.73828125 136.0078125 C-99.90171978 198.54242298 -71.13581913 259.38139974 -32.47558594 308.12744141 C-30.65248633 310.44100428 -28.8756545 312.78753558 -27.09887695 315.13671875 C-18.81015542 326.06268561 -9.84547835 336.3526842 -0.49951172 346.3828125 C1.10277141 348.11083651 2.69042346 349.85161269 4.27734375 351.59375 C12.45360418 360.52386652 21.04113439 368.86009611 30 377 C30.9178125 377.84433594 31.835625 378.68867188 32.78125 379.55859375 C38.67117513 384.93594629 44.76123879 390.03360582 51 395 C51.95108643 395.75990234 51.95108643 395.75990234 52.92138672 396.53515625 C79.1552944 417.42843551 106.98822313 435.01419209 137 450 C137.74620605 450.37705078 138.49241211 450.75410156 139.26123047 451.14257812 C174.45943636 468.83535831 214.43597958 480.4648075 254 480.375 C254.70401947 480.37611786 255.40803894 480.37723572 256.13339233 480.37838745 C270.71028547 480.36709247 284.85645136 478.6116741 299 475 C297.35 474.67 295.7 474.34 294 474 C294 473.67 294 473.34 294 473 C304.23 473 314.46 473 325 473 C277.98723977 496.50638012 224.72897013 491.86364885 175.91210938 475.85424805 C125.81107585 458.69745106 80.4927689 430.84552914 40 397 C39.4838916 396.57025879 38.9677832 396.14051758 38.43603516 395.69775391 C25.15378548 384.6047553 12.63831969 372.70285251 0.375 360.5 C-0.26356934 359.86610352 -0.90213867 359.23220703 -1.56005859 358.57910156 C-5.9075831 354.21669219 -9.98861622 349.67164997 -14 345 C-14.96197443 343.8943005 -15.92419992 342.78881937 -16.88671875 341.68359375 C-42.37528874 312.21735061 -65.10227411 280.25826474 -82.00537109 245.05419922 C-83.04235858 242.91251717 -84.10767617 240.78647218 -85.17578125 238.66015625 C-97.53097582 213.74335575 -106.53256246 186.47313742 -111 159 C-111.17877686 157.91130615 -111.35755371 156.8226123 -111.54174805 155.70092773 C-112.92719228 146.44467915 -113.34178967 137.3956419 -113.31567383 128.04907227 C-113.31251621 125.69955829 -113.33608201 123.3513128 -113.36132812 121.00195312 C-113.50091413 87.6901752 -102.34758951 56.9205365 -79 33 C-78.40703125 32.34515625 -77.8140625 31.6903125 -77.203125 31.015625 C-59.14824012 11.53065023 -26.29005096 -0.9644448 0 0 Z " fill="#1A83AB" transform="translate(135,64)"/>
<path d="M0 0 C2.0625 1.8125 2.0625 1.8125 3.125 4.1875 C3.0625 6.8125 3.0625 6.8125 1.77734375 9.47265625 C-2.5282773 13.18354403 -6.97069535 12.18844811 -12.4375 11.875 C-14.50949873 11.7638632 -16.58255798 11.67067357 -18.65625 11.59765625 C-19.57341797 11.54488525 -20.49058594 11.49211426 -21.43554688 11.43774414 C-24.8379679 11.94737688 -25.86241426 13.10915657 -27.9375 15.8125 C-32.13212727 25.54502417 -33.84286109 36.68294138 -36.125 47 C-36.65646685 49.38907231 -37.18943496 51.77778451 -37.72541809 54.16584778 C-38.05547059 55.63761729 -38.38280798 57.10999903 -38.70707703 58.58305359 C-39.82574639 63.58899278 -39.82574639 63.58899278 -40.9375 65.8125 C-36.60870454 63.55399802 -32.98635601 61.08835272 -29.25 57.9375 C-22.57363603 52.49447961 -14.88799519 46.95830336 -5.9375 47.8125 C-3 49.625 -3 49.625 -0.9375 52.8125 C-0.37122856 61.8363748 -3.70576904 70.73598086 -6.3125 79.25 C-11.92656223 95.74221042 -11.92656223 95.74221042 -13.9375 112.8125 C-8.99972516 110.71394569 -5.68164727 107.90912742 -1.8671875 104.140625 C0.0625 102.8125 0.0625 102.8125 2.3046875 103.109375 C2.88476562 103.34140625 3.46484375 103.5734375 4.0625 103.8125 C4.0625 107.8125 4.0625 107.8125 2.0625 110.8125 C1.464375 111.10125 0.86625 111.39 0.25 111.6875 C-2.12981497 112.76459942 -2.12981497 112.76459942 -4.1875 115.125 C-9.39257822 120.21178099 -14.53337289 123.59063437 -21.953125 124 C-23.9375 123.8125 -23.9375 123.8125 -26.4375 122.375 C-31.39539565 113.9052616 -27.67840612 103.63346648 -25.40457153 94.72445679 C-24.08866163 89.81745358 -22.67279792 84.9393753 -21.25 80.0625 C-20.62537833 77.9123925 -20.00260159 75.76181294 -19.38456726 73.60980225 C-18.83277051 71.6894532 -18.27461198 69.77093547 -17.71606445 67.85253906 C-16.81345178 64.85115772 -16.81345178 64.85115772 -16.9375 61.8125 C-24.82788471 61.25135508 -29.22781604 65.67299517 -34.99609375 70.5546875 C-42.43130106 77.49421432 -44.72408942 85.80701182 -47 95.5 C-47.25821533 96.55912598 -47.51643066 97.61825195 -47.7824707 98.70947266 C-48.86996336 103.19490711 -49.92598968 107.6840086 -50.8828125 112.19921875 C-51.12773437 113.35035156 -51.37265625 114.50148438 -51.625 115.6875 C-51.81449219 116.65429688 -52.00398438 117.62109375 -52.19921875 118.6171875 C-52.9375 120.8125 -52.9375 120.8125 -55.9375 122.8125 C-55.24527344 123.59109375 -54.55304688 124.3696875 -53.83984375 125.171875 C-15.97387878 168.26118538 14.50270085 220.71525553 30.125 276.0625 C30.43099121 277.14265381 30.43099121 277.14265381 30.74316406 278.24462891 C31.70816279 281.84294398 32.28646137 285.08462689 32.0625 288.8125 C33.7125 289.1425 35.3625 289.4725 37.0625 289.8125 C37.6875 291.625 37.6875 291.625 38.0625 293.8125 C37.4025 294.8025 36.7425 295.7925 36.0625 296.8125 C35.4025 296.8125 34.7425 296.8125 34.0625 296.8125 C34.5575 300.2775 34.5575 300.2775 35.0625 303.8125 C35.7225 303.8125 36.3825 303.8125 37.0625 303.8125 C37.71293638 314.1614074 38.22744885 324.4390501 38.0625 334.8125 C39.7125 335.1425 41.3625 335.4725 43.0625 335.8125 C43.0625 336.4725 43.0625 337.1325 43.0625 337.8125 C41.4125 337.8125 39.7625 337.8125 38.0625 337.8125 C38.09730469 338.51890625 38.13210938 339.2253125 38.16796875 339.953125 C39.05650261 373.63278935 26.45810228 404.8838436 3.54296875 429.25390625 C2.72441406 430.09824219 1.90585937 430.94257813 1.0625 431.8125 C0.46566406 432.56917969 -0.13117188 433.32585937 -0.74609375 434.10546875 C-3.96862835 436.61571407 -7.25955626 436.48616187 -11.1875 436.5625 C-12.30511719 436.60697266 -12.30511719 436.60697266 -13.4453125 436.65234375 C-15.27546672 436.7227343 -17.10648769 436.76991832 -18.9375 436.8125 C-16.39542921 434.17943786 -13.8270583 431.9074856 -10.875 429.75 C13.45633377 410.88324447 24.81226438 384.07469255 28.78515625 354.13085938 C29.43398855 348.70716966 29.80439359 343.26833545 30.0625 337.8125 C28.0825 337.8125 26.1025 337.8125 24.0625 337.8125 C24.3925 336.8225 24.7225 335.8325 25.0625 334.8125 C27.125 334.125 27.125 334.125 29.0625 333.8125 C29.16178082 326.05756486 29.12309488 318.50181285 28.0625 310.8125 C26.7425 310.4825 25.4225 310.1525 24.0625 309.8125 C24.0625 308.8225 24.0625 307.8325 24.0625 306.8125 C25.0525 306.4825 26.0425 306.1525 27.0625 305.8125 C22.21861029 272.27433031 9.70211774 240.68730598 -5.9375 210.8125 C-6.33807617 210.04711914 -6.73865234 209.28173828 -7.15136719 208.49316406 C-20.39272483 183.39628988 -36.56316542 160.14143816 -54.5 138.1875 C-55.21800781 137.29804688 -55.93601562 136.40859375 -56.67578125 135.4921875 C-58.2512688 133.62554767 -59.9021141 131.82105183 -61.60546875 130.0703125 C-62.45753906 129.16023437 -63.30960937 128.25015625 -64.1875 127.3125 C-64.97640625 126.5184375 -65.7653125 125.724375 -66.578125 124.90625 C-68.18322116 121.25327254 -67.81645418 120.50884324 -66.68676758 116.81347656 C-65.02729007 111.14678068 -63.63478208 105.45580978 -62.30859375 99.703125 C-62.07342545 98.69207703 -61.83825714 97.68102905 -61.59596252 96.63934326 C-60.85366487 93.44751729 -60.11403713 90.25508237 -59.375 87.0625 C-58.63227047 83.85566455 -57.88888975 80.64898779 -57.14332581 77.44281006 C-56.68195667 75.45870356 -56.2221818 73.47422542 -55.76426697 71.48931885 C-54.86215918 67.60919527 -53.94862086 63.74703707 -52.83740234 59.92089844 C-52.11990656 57.44255977 -51.52062376 55.03111079 -51.04296875 52.5 C-45.53273421 24.28927802 -45.53273421 24.28927802 -36.9375 13.8125 C-36.46054687 13.20148438 -35.98359375 12.59046875 -35.4921875 11.9609375 C-27.62737748 2.98952104 -11.82510748 -4.7803626 0 0 Z " fill="#1566AF" transform="translate(532.9375,76.1875)"/>
<path d="M0 0 C0.33 0.66 0.66 1.32 1 2 C3.37394382 2.35940363 3.37394382 2.35940363 6.2421875 2.4375 C13.09564481 2.9069426 19.48242685 4.29638869 26.125 6 C27.3305957 6.30615234 28.53619141 6.61230469 29.77832031 6.92773438 C46.96733879 11.41884168 63.86426775 17.04030621 79.828125 24.8828125 C83.42764211 26.15062271 85.35741899 26.00013062 89 25 C89.99 24.505 89.99 24.505 91 24 C90.38017979 30.76324931 89.55071602 37.46734092 88.546875 44.18359375 C88.25632383 46.1639299 87.96613751 48.1443196 87.67626953 50.12475586 C87.52498596 51.15470673 87.37370239 52.18465759 87.21783447 53.24581909 C84.30236717 73.13584828 81.70490234 93.03669379 79.51074219 113.01928711 C79.41475739 113.88376465 79.31877258 114.74824219 79.21987915 115.63891602 C79.04183959 117.2484554 78.86728765 118.85838589 78.6968689 120.46875 C78.1113146 125.77737079 78.1113146 125.77737079 77 128 C79.22899787 128.16890918 81.45820662 128.33503687 83.6875 128.5 C84.92886719 128.5928125 86.17023438 128.685625 87.44921875 128.78125 C90.31499329 128.95779937 93.13099957 129.04388528 96 129 C95.505 131.97 95.505 131.97 95 135 C83.12 135 71.24 135 59 135 C59.78375 132.339375 60.5675 129.67875 61.375 126.9375 C63.74084037 118.66351861 65.15401763 110.56083654 66 102 C64.35064453 102.26683594 64.35064453 102.26683594 62.66796875 102.5390625 C59.31083415 102.97152697 56.23336494 102.93319797 52.86328125 102.6484375 C42.8023465 101.82879576 42.8023465 101.82879576 33.87841797 105.69824219 C29.97928556 110.20111786 27.16940684 115.34087858 24.36425781 120.57080078 C22.42117858 124.03065016 20.10027277 127.09575482 17.625 130.1875 C16.82320312 131.20457031 16.02140625 132.22164062 15.1953125 133.26953125 C14.10863281 134.62111328 14.10863281 134.62111328 13 136 C12.39929688 136.76699219 11.79859375 137.53398437 11.1796875 138.32421875 C5.33190197 145.4639569 -2.73545367 152.34057407 -12.19140625 153.3359375 C-13.30386719 153.34882813 -14.41632813 153.36171875 -15.5625 153.375 C-16.67753906 153.40335938 -17.79257813 153.43171875 -18.94140625 153.4609375 C-22 153 -22 153 -24.41015625 151.20703125 C-26 149 -26 149 -25.875 145.3125 C-25.58625 144.219375 -25.2975 143.12625 -25 142 C-21.3310048 140.1655024 -16.53522338 141.09716708 -12.47265625 141.30273438 C-5.85310471 141.4586924 -2.62419107 139.25482866 2.38671875 134.94921875 C7.05803506 130.35721171 11.18690407 125.64560892 15.02734375 120.3515625 C15.49637115 119.70818436 15.96539856 119.06480621 16.44863892 118.40193176 C23.0949759 109.19911698 29.27372242 99.675716 35.51513672 90.1965332 C47.5850933 71.88641267 60.26268249 54.10155853 74 37 C56.39315262 37.79416482 56.39315262 37.79416482 41 45.4375 C37.95721271 49.33607122 36.86620961 51.50154768 37.3125 56.5 C37.92983689 59.8837102 37.92983689 59.8837102 38.75 62.6875 C39 65 39 65 38 67.3125 C36 69 36 69 32.5 69.5625 C29 69 29 69 27.0625 67 C24.62410347 60.11511567 25.95826915 54.80945208 28.80859375 48.32421875 C32.62722652 40.87475483 38.42643679 36.59248165 46.2421875 33.87109375 C53.42477983 31.74146298 60.62688787 30.27970011 68 29 C46.46995016 20.15267897 24.32090348 13.45046277 1.23510742 10.19042969 C0.30802979 10.05797852 -0.61904785 9.92552734 -1.57421875 9.7890625 C-2.78984497 9.62978271 -2.78984497 9.62978271 -4.0300293 9.46728516 C-6 9 -6 9 -8 7 C-4.04 3.535 -4.04 3.535 0 0 Z M74 47 C73.07703076 48.14354228 72.19909908 49.32346669 71.33984375 50.515625 C70.79763184 51.26602051 70.25541992 52.01641602 69.69677734 52.78955078 C69.11621582 53.60149902 68.5356543 54.41344727 67.9375 55.25 C67.34404785 56.07612793 66.7505957 56.90225586 66.13916016 57.75341797 C62.33526383 63.0709934 58.63517906 68.43562771 55.0546875 73.90625 C53.42081739 76.36637382 51.75943628 78.79677315 50.0703125 81.21875 C49.56258301 81.94819824 49.05485352 82.67764648 48.53173828 83.42919922 C47.52602073 84.87093075 46.51668963 86.3101496 45.50341797 87.74658203 C42.91104027 91.05968346 42.91104027 91.05968346 42 95 C45.3953164 95.19777236 48.79125692 95.38139685 52.1875 95.5625 C53.14720703 95.61857422 54.10691406 95.67464844 55.09570312 95.73242188 C56.02705078 95.78076172 56.95839844 95.82910156 57.91796875 95.87890625 C58.77156982 95.9260376 59.6251709 95.97316895 60.50463867 96.02172852 C63.12353758 95.99892429 65.45403152 95.59213206 68 95 C68.14099121 94.00782471 68.28198242 93.01564941 68.42724609 91.9934082 C68.95954089 88.2489985 69.49281893 84.50472933 70.02636719 80.76049805 C70.25546909 79.1518112 70.48431791 77.54308829 70.71289062 75.93432617 C72.08475037 66.28016405 73.48832562 56.63344968 75 47 C74.67 47 74.34 47 74 47 Z " fill="#1667B0" transform="translate(178,64)"/>
<path d="M0 0 C2 2 2 2 2.25 5.625 C2.15441201 9.97425334 1.192083 13.8277095 0 18 C0.7734375 17.26394531 1.546875 16.52789062 2.34375 15.76953125 C18.70512969 0.36919172 18.70512969 0.36919172 30.0625 -0.4375 C34 0 34 0 36.875 2.25 C42.77148588 9.88074643 41.72275198 18.7101774 41 28 C38.58776293 42.99251141 30.82202766 56.5231402 20 67 C19.48824219 67.52078125 18.97648437 68.0415625 18.44921875 68.578125 C13.06520639 73.61331402 6.04694071 76.21015947 -1.25 76.375 C-5.11306015 76.21657798 -8.411155 75.51109263 -12 74 C-14.13947821 80.19249235 -16.01557446 86.41587726 -17.6875 92.75 C-17.91244141 93.57371094 -18.13738281 94.39742188 -18.36914062 95.24609375 C-19.42792085 99.24306954 -20.313984 102.82486144 -20 107 C-14.60845743 110.20578207 -9.15568076 111.06898067 -3 112 C-3.33 113.98 -3.66 115.96 -4 118 C-18.52 118 -33.04 118 -48 118 C-47.67 116.02 -47.34 114.04 -47 112 C-46.38511719 111.82984375 -45.77023437 111.6596875 -45.13671875 111.484375 C-44.32847656 111.24203125 -43.52023437 110.9996875 -42.6875 110.75 C-41.88699219 110.51796875 -41.08648437 110.2859375 -40.26171875 110.046875 C-37.4224403 108.73266667 -36.54435234 107.72611761 -35 105 C-34.13810018 102.38773513 -33.40894698 99.85066087 -32.75 97.1875 C-32.44074585 95.9794873 -32.44074585 95.9794873 -32.12524414 94.74707031 C-29.75881045 85.3366705 -27.66959664 75.85632262 -25.58691406 66.37963867 C-23.88653244 58.69187958 -22.00291903 51.09340108 -19.94360352 43.49511719 C-18.64348864 38.67947823 -17.42662206 33.84709087 -16.25 29 C-16.02957031 28.12472656 -15.80914062 27.24945313 -15.58203125 26.34765625 C-14.39028726 21.42523544 -13.75229647 17.06416106 -14 12 C-18.95151358 14.05306661 -21.84709942 16.69665004 -25.2890625 20.671875 C-26.13597656 21.32929688 -26.13597656 21.32929688 -27 22 C-29.2109375 21.703125 -29.2109375 21.703125 -31 21 C-31.75390625 19.30078125 -31.75390625 19.30078125 -32 17 C-25.51595391 7.53551219 -11.84588082 -2.0502486 0 0 Z M2.515625 23.953125 C-3.09783432 30.75203536 -5.10487832 38.23259691 -7.1875 46.6875 C-7.57711914 48.21600586 -7.57711914 48.21600586 -7.97460938 49.77539062 C-9.08653684 54.16850973 -10.13844211 58.55020099 -11 63 C-9.89932004 63.81721717 -8.79430269 64.62859451 -7.6875 65.4375 C-7.07261719 65.88996094 -6.45773437 66.34242188 -5.82421875 66.80859375 C-1.9658078 69.32854095 1.50865819 69.37427848 6 69 C14.12126316 65.80950376 18.2296212 59.08534942 21.703125 51.328125 C26.15577645 40.83780022 31.49361972 27.01628496 27.10546875 15.69140625 C25.68522596 13.5183846 24.42027213 12.88009896 22 12 C13.64631482 12 8.05094741 18.48106341 2.515625 23.953125 Z " fill="#1466AF" transform="translate(316,124)"/>
<path d="M0 0 C4.314818 -0.4314818 6.35839333 -0.46685665 9.92578125 2.12890625 C13.01726117 4.86899375 15.57493328 7.96314491 18.0625 11.25 C18.53018799 11.85859863 18.99787598 12.46719727 19.47973633 13.09423828 C20.47958432 14.39649621 21.47684042 15.70074767 22.47167969 17.00683594 C23.97662519 18.96951567 25.50425129 20.91218173 27.0390625 22.8515625 C57.79407562 61.97679372 82.51358338 107.24840989 96.0625 155.25 C96.26649414 155.97010254 96.47048828 156.69020508 96.68066406 157.43212891 C97.64566279 161.03044398 98.22396137 164.27212689 98 168 C99.65 168.33 101.3 168.66 103 169 C103.625 170.8125 103.625 170.8125 104 173 C103.34 173.99 102.68 174.98 102 176 C101.34 176 100.68 176 100 176 C100.495 179.465 100.495 179.465 101 183 C101.66 183 102.32 183 103 183 C103.65043638 193.3489074 104.16494885 203.6265501 104 214 C105.65 214.33 107.3 214.66 109 215 C109 215.66 109 216.32 109 217 C107.35 217 105.7 217 104 217 C104.03480469 217.70640625 104.06960938 218.4128125 104.10546875 219.140625 C104.99400261 252.82028935 92.39560228 284.0713436 69.48046875 308.44140625 C68.66191406 309.28574219 67.84335937 310.13007813 67 311 C66.40316406 311.75667969 65.80632812 312.51335937 65.19140625 313.29296875 C61.96887165 315.80321407 58.67794374 315.67366187 54.75 315.75 C53.63238281 315.79447266 53.63238281 315.79447266 52.4921875 315.83984375 C50.66203328 315.9102343 48.83101231 315.95741832 47 316 C49.54207079 313.36693786 52.1104417 311.0949856 55.0625 308.9375 C79.39383377 290.07074447 90.74976438 263.26219255 94.72265625 233.31835938 C95.37148855 227.89466966 95.74189359 222.45583545 96 217 C94.02 217 92.04 217 90 217 C90.33 216.01 90.66 215.02 91 214 C93.0625 213.3125 93.0625 213.3125 95 213 C95.09928082 205.24506486 95.06059488 197.68931285 94 190 C92.68 189.67 91.36 189.34 90 189 C90 188.01 90 187.02 90 186 C90.99 185.67 91.98 185.34 93 185 C88.15611029 151.46183031 75.63961774 119.87480598 60 90 C59.59942383 89.23461914 59.19884766 88.46923828 58.78613281 87.68066406 C44.22134275 60.07543553 26.14545566 33.57365979 5.3984375 10.1953125 C2.55083075 6.98134699 1.08932021 4.15922262 0 0 Z " fill="#1D5D8D" transform="translate(467,197)"/>
<path d="M0 0 C0.97952637 0.11666016 1.95905273 0.23332031 2.96826172 0.35351562 C62.9288644 7.74319331 118.14252543 34.70113618 166.76171875 69.671875 C168.81665999 71.14925133 170.89416892 72.59611261 173 74 C172.67 74.99 172.34 75.98 172 77 C161.89010543 76.26917646 155.48911743 73.49505241 147.375 67.5625 C145.27249912 66.09599624 143.16699676 64.63378674 141.05859375 63.17578125 C140.0310498 62.45986816 139.00350586 61.74395508 137.94482422 61.00634766 C130.90328541 56.20885421 123.47027859 52.0847993 116 48 C115.12053711 47.5157959 114.24107422 47.0315918 113.33496094 46.53271484 C67.13664018 21.25913403 18.62235669 7.53945696 -34 8 C-33.38390869 7.53883789 -32.76781738 7.07767578 -32.13305664 6.60253906 C-30.70577953 5.53024343 -29.28512076 4.44908389 -27.87109375 3.359375 C-18.77859797 -2.65363987 -10.30280278 -1.30065025 0 0 Z " fill="#1A5B8C" transform="translate(223,49)"/>
<path d="M0 0 C0.495 2.475 0.495 2.475 1 5 C1.598125 4.360625 2.19625 3.72125 2.8125 3.0625 C6.16227377 -0.09585813 9.39480438 -0.40176416 13.9296875 -0.3515625 C17.70535835 0.28958915 19.41909221 2.2302453 22 5 C23.0883995 8.0730324 23.11649587 10.9627099 23.09765625 14.203125 C23.09282227 15.67265625 23.09282227 15.67265625 23.08789062 17.171875 C23.07532227 18.69554687 23.07532227 18.69554687 23.0625 20.25 C23.05798828 21.28125 23.05347656 22.3125 23.04882812 23.375 C23.03706088 25.91672573 23.02062011 28.45833319 23 31 C24.65 31 26.3 31 28 31 C28 31.99 28 32.98 28 34 C23.71 34 19.42 34 15 34 C15.02320313 32.38609375 15.04640625 30.7721875 15.0703125 29.109375 C15.08907168 26.98958796 15.10727172 24.86979591 15.125 22.75 C15.14175781 21.68652344 15.15851562 20.62304688 15.17578125 19.52734375 C15.18222656 18.50253906 15.18867187 17.47773438 15.1953125 16.421875 C15.20578613 15.47924805 15.21625977 14.53662109 15.22705078 13.56542969 C14.98673565 10.85012712 14.52620719 9.25056318 13 7 C9.61974978 5.9483666 7.59574109 5.82789702 4.1875 6.8125 C1.85799264 7.80675769 1.85799264 7.80675769 1 10 C0.84824451 11.59262066 0.75099675 13.19064856 0.68359375 14.7890625 C0.62075195 16.20058594 0.62075195 16.20058594 0.55664062 17.640625 C0.51732422 18.62546875 0.47800781 19.6103125 0.4375 20.625 C0.37272461 22.11386719 0.37272461 22.11386719 0.30664062 23.6328125 C0.20038931 26.08839838 0.09835036 28.54408703 0 31 C1.65 31 3.3 31 5 31 C5.495 32.485 5.495 32.485 6 34 C2.7 34 -0.6 34 -4 34 C-3.98428955 34.7434668 -3.9685791 35.48693359 -3.95239258 36.25292969 C-3.30983679 71.4443815 -8.50521423 102.35596382 -30 131 C-30.33 131.33 -30.66 131.66 -31 132 C-28.69 132.33 -26.38 132.66 -24 133 C-24 133.33 -24 133.66 -24 134 C-31.3905476 134.14715692 -38.64424835 133.70776992 -46 133 C-45.41605469 132.74605469 -44.83210938 132.49210938 -44.23046875 132.23046875 C-30.19038866 124.48506555 -22.26509438 102.53881948 -17.81640625 88.1796875 C-13.97629908 74.47908536 -12.70531999 61.34937756 -12.875 47.1875 C-12.88506348 45.70508426 -12.8941833 44.22266181 -12.90234375 42.74023438 C-12.92405925 39.16001326 -12.95839754 35.58005192 -13 32 C-11.35 31.67 -9.7 31.34 -8 31 C-7.24524649 22.64380043 -6.86394518 14.39004715 -7 6 C-9.475 5.505 -9.475 5.505 -12 5 C-12 4.34 -12 3.68 -12 3 C-10.56445975 2.49440092 -9.1264798 1.9957251 -7.6875 1.5 C-6.88699219 1.2215625 -6.08648438 0.943125 -5.26171875 0.65625 C-3 0 -3 0 0 0 Z " fill="#1F84AB" transform="translate(521,380)"/>
<path d="M0 0 C2.93977109 2.07935028 4.30296643 3.42750354 5.5625 6.8125 C4.3625 12.0125 4.3625 12.0125 2.5625 13.8125 C-2.29786436 14.46125761 -6.24476075 14.20373328 -10.5625 11.8125 C-14.40030242 9.69980877 -16.99434388 9.00465343 -21.4375 9.8125 C-27.84240357 12.77617249 -30.15807514 18.82558607 -32.5065918 25.07617188 C-36.24473867 35.62184371 -39.44108757 48.88281967 -34.8125 59.625 C-32.75089977 62.93741745 -32.75089977 62.93741745 -29.75 64 C-22.07712733 63.56568645 -16.1011718 60.26632128 -9.69921875 56.21484375 C-7.65583686 54.94787639 -5.60482836 53.84904835 -3.4375 52.8125 C-2.9425 56.2775 -2.9425 56.2775 -2.4375 59.8125 C-26.83906438 76.16332927 -26.83906438 76.16332927 -41.4375 74.8125 C-44.375 73.5 -44.375 73.5 -46.4375 71.8125 C-46.994375 71.379375 -47.55125 70.94625 -48.125 70.5 C-53.23990225 63.92369711 -52.12831075 53.6923362 -51.4375 45.8125 C-48.80215296 30.60007757 -40.67498163 15.2988115 -28.625 5.4375 C-20.104773 -0.43161919 -10.00372252 -3.45583141 0 0 Z " fill="#1566AF" transform="translate(457.4375,125.1875)"/>
<path d="M0 0 C0.83144531 0.0721875 1.66289062 0.144375 2.51953125 0.21875 C3.60621094 0.3115625 4.69289063 0.404375 5.8125 0.5 C6.89144531 0.5928125 7.97039062 0.685625 9.08203125 0.78125 C12.01090811 1.03737838 12.01090811 1.03737838 15 1 C13.33190672 9.59034272 11.03360628 18.008879 8.58984375 26.40625 C8.3752652 27.14439941 8.16068665 27.88254883 7.93960571 28.64306641 C7.05019583 31.69674674 6.15892156 34.74982599 5.25854492 37.80029297 C2.60272868 46.81449664 0.22722002 55.65450954 -1 65 C3.7502149 62.47947781 7.48998245 59.85354951 11.32421875 56.07421875 C13 55 13 55 15.20703125 55.33203125 C15.79871094 55.55246094 16.39039063 55.77289063 17 56 C17 57.32 17 58.64 17 60 C16.38125 60.2475 15.7625 60.495 15.125 60.75 C12.84998472 61.82396211 12.84998472 61.82396211 12 64.0625 C11.67 64.701875 11.34 65.34125 11 66 C9.67405895 66.36162029 8.34061543 66.69728039 7 67 C6.67 67.99 6.34 68.98 6 70 C1.56613305 73.91356623 -3.12748048 75.58301934 -8.921875 76.25 C-11.76477699 75.90799675 -12.94444822 74.97931238 -15 73 C-16.50894555 65.13033931 -14.41945952 56.923595 -12.4375 49.3125 C-12.04183838 47.72900757 -12.04183838 47.72900757 -11.63818359 46.11352539 C-8.66013373 34.34632138 -5.36291691 22.66221184 -2 11 C-5.95732512 12.84259407 -9.15314571 14.74339177 -12.375 17.6875 C-13.06335938 18.31011719 -13.75171875 18.93273437 -14.4609375 19.57421875 C-15.22277344 20.27998047 -15.22277344 20.27998047 -16 21 C-17.32 20.34 -18.64 19.68 -20 19 C-20 16 -20 16 -18.3125 13.9140625 C-6.27645051 2 -6.27645051 2 0 2 C0 1.34 0 0.68 0 0 Z " fill="#1466AF" transform="translate(383,124)"/>
<path d="M0 0 C5.282228 3.89102392 9.75791979 8.80877964 10.8984375 15.3984375 C11.78985287 25.26060439 10.23137583 32.36627386 4.1484375 40.2109375 C-0.57645375 45.37953681 -6.85855422 48.01893089 -13.765625 48.63671875 C-21.67667052 48.83501672 -28.68255857 48.08872619 -34.94921875 42.85546875 C-41.38962219 35.9403427 -42.63329023 28.78594887 -42.38671875 19.5234375 C-41.75232888 12.57121974 -39.48176023 8.01003556 -34.1015625 3.3984375 C-32.895 2.315625 -32.895 2.315625 -31.6640625 1.2109375 C-23.44619035 -4.60170378 -8.81442047 -4.76181336 0 0 Z M-31.4140625 7.9609375 C-35.40585054 13.72685356 -34.51274509 20.66251915 -34.1015625 27.3984375 C-32.73821757 34.23663216 -29.0853886 39.31669836 -23.4140625 43.2734375 C-17.7375966 45.20129384 -12.4655284 45.20129384 -6.7890625 43.2734375 C-1.16882815 39.35234377 1.68527902 35.12595271 2.8984375 28.3984375 C3.60050634 20.02375925 2.6485906 13.66591645 -1.9140625 6.5859375 C-6.44188781 2.05811219 -10.31569612 1.17547219 -16.6015625 0.9609375 C-23.52725922 1.13427689 -26.78079087 2.82677164 -31.4140625 7.9609375 Z " fill="#6A6A6A" transform="translate(365.1015625,366.6015625)"/>
<path d="M0 0 C1.98 0 3.96 0 6 0 C7.21421724 32.86325648 -1.68098353 63.21392774 -24 88 C-26.08046607 90.00965604 -28.17094644 91.87897859 -30.44140625 93.66796875 C-32.26727608 95.10609812 -32.26727608 95.10609812 -34 98 C-36.77262255 98.38394667 -39.34323528 98.60342248 -42.125 98.6875 C-42.87910156 98.72166016 -43.63320313 98.75582031 -44.41015625 98.79101562 C-46.27291201 98.87354278 -48.13643326 98.93844711 -50 99 C-47.45792921 96.36693786 -44.8895583 94.0949856 -41.9375 91.9375 C-17.96095066 73.34584781 -6.79096739 47.35327316 -2.61328125 17.89453125 C-2 14 -2 14 -1 12 C-0.77141886 9.9625237 -0.58975722 7.91959697 -0.4375 5.875 C-0.35371094 4.77929688 -0.26992188 3.68359375 -0.18359375 2.5546875 C-0.09271484 1.29011719 -0.09271484 1.29011719 0 0 Z " fill="#195A8B" transform="translate(564,414)"/>
<path d="M0 0 C0.76183594 -0.01417969 1.52367187 -0.02835937 2.30859375 -0.04296875 C4.5625 0.1875 4.5625 0.1875 6.48828125 1.16015625 C9.12687135 2.46702856 11.3856683 2.60344059 14.3125 2.8125 C15.29734375 2.88726562 16.2821875 2.96203125 17.296875 3.0390625 C18.04453125 3.08804687 18.7921875 3.13703125 19.5625 3.1875 C18.9025 4.5075 18.2425 5.8275 17.5625 7.1875 C15.5825 7.1875 13.6025 7.1875 11.5625 7.1875 C11.665625 8.38375 11.76875 9.58 11.875 10.8125 C11.86859868 14.42924681 11.5186824 15.2558039 9.4375 18.5 C4.50588304 23.10998976 0.23089007 24.52066099 -6.4375 25.1875 C-6.4375 26.1775 -6.4375 27.1675 -6.4375 28.1875 C-5.88288086 28.1968457 -5.32826172 28.20619141 -4.75683594 28.21582031 C-2.23283519 28.26965722 0.28933814 28.35327254 2.8125 28.4375 C3.68519531 28.45167969 4.55789063 28.46585937 5.45703125 28.48046875 C11.908812 28.72671992 11.908812 28.72671992 15.1171875 30.98828125 C17.7814819 35.04232922 17.95761354 39.11315392 17.0625 43.8125 C13.85388728 48.89280347 9.27282796 52.36289817 3.5625 54.1875 C-2.85973774 54.85306165 -9.012904 55.08208174 -14.4375 51.1875 C-17.15790925 48.73913168 -17.67115004 46.73185898 -17.875 43.1875 C-17.76398595 40.05573531 -17.5272875 39.30721666 -15.5625 36.6875 C-13.4375 35.1875 -13.4375 35.1875 -11.4375 35.1875 C-11.4375 34.5275 -11.4375 33.8675 -11.4375 33.1875 C-12.4275 32.8575 -13.4175 32.5275 -14.4375 32.1875 C-13.82211538 26.64903846 -13.82211538 26.64903846 -11.875 24.3125 C-11.400625 23.94125 -10.92625 23.57 -10.4375 23.1875 C-11.241875 22.6925 -12.04625 22.1975 -12.875 21.6875 C-15.86955824 18.76597976 -16.31770137 17.26558071 -16.56640625 13.2109375 C-16.35467485 9.8873962 -15.34331609 7.8925293 -13.4375 5.1875 C-9.04053109 1.7981698 -5.54414151 0.04674656 0 0 Z M-7.1875 4.6875 C-9.582188 7.34826445 -9.79323117 7.81610839 -9.875 11.1875 C-9.56881621 15.51743931 -9.56881621 15.51743931 -7.4375 19.1875 C-4.21308431 20.763881 -2.24556889 21.31605641 1.3125 20.75 C3.86430714 19.26719748 3.86430714 19.26719748 5 15.9375 C5.61639356 11.82820959 5.40859983 9.87969966 3.5625 6.1875 C0.08195467 2.70695467 -2.73971817 2.26143718 -7.1875 4.6875 Z M-9.9140625 36.9921875 C-12.14413919 40.20578519 -11.98264753 42.37146726 -11.4375 46.1875 C-9.7790525 48.92754369 -8.46365311 49.90516186 -5.37890625 50.75390625 C-0.19948188 51.58366226 3.08031213 51.17562525 7.5625 48.1875 C8.18125 47.795625 8.8 47.40375 9.4375 47 C11.40341986 43.83268468 10.85293024 40.84692104 10.5625 37.1875 C7.64322255 34.26822255 4.59260187 34.81941168 0.6875 34.8125 C-0.03308594 34.78800781 -0.75367188 34.76351562 -1.49609375 34.73828125 C-5.0049124 34.71889551 -7.0454073 34.90177945 -9.9140625 36.9921875 Z " fill="#6E6E6E" transform="translate(439.4375,379.8125)"/>
<path d="M0 0 C0.33 0.66 0.66 1.32 1 2 C3.37394382 2.35940363 3.37394382 2.35940363 6.2421875 2.4375 C13.09564481 2.9069426 19.48242685 4.29638869 26.125 6 C27.3305957 6.30615234 28.53619141 6.61230469 29.77832031 6.92773438 C46.95638597 11.41597995 63.8167861 17.07664047 79.828125 24.78515625 C83.13379381 26.05124369 85.49447262 26.24963604 89 26 C88.67 26.66 88.34 27.32 88 28 C80.40593698 30.27404634 72.90473416 31.40886556 65 31 C65.99 30.34 66.98 29.68 68 29 C46.46995016 20.15267897 24.32090348 13.45046277 1.23510742 10.19042969 C0.30802979 10.05797852 -0.61904785 9.92552734 -1.57421875 9.7890625 C-2.78984497 9.62978271 -2.78984497 9.62978271 -4.0300293 9.46728516 C-6 9 -6 9 -8 7 C-5.36 4.69 -2.72 2.38 0 0 Z " fill="#1B83AB" transform="translate(178,64)"/>
<path d="M0 0 C0.33 1.65 0.66 3.3 1 5 C1.78375 4.360625 2.5675 3.72125 3.375 3.0625 C7.47821171 -0.16145205 9.76450289 -0.34903314 15 0 C18.98066095 1.57724302 20.60667274 2.41000911 23 6 C23.31884766 8.63549805 23.31884766 8.63549805 23.4140625 11.76171875 C23.47207031 13.43911133 23.47207031 13.43911133 23.53125 15.15039062 C23.5621875 16.31763672 23.593125 17.48488281 23.625 18.6875 C23.68300781 20.45577148 23.68300781 20.45577148 23.7421875 22.25976562 C23.83654391 25.17301977 23.92213161 28.08626607 24 31 C25.65 31.33 27.3 31.66 29 32 C29 32.66 29 33.32 29 34 C24.71 34 20.42 34 16 34 C16.02320313 32.62585938 16.04640625 31.25171875 16.0703125 29.8359375 C16.08907855 28.01563046 16.10727785 26.19531751 16.125 24.375 C16.14175781 23.47136719 16.15851562 22.56773437 16.17578125 21.63671875 C16.21154412 16.73720495 16.15727869 12.51657679 14 8 C10.73776475 6.2601412 8.88939028 5.83829268 5.25 6.5 C2.09252436 8.60498376 1.91832481 10.33497396 1 14 C0.7775762 16.96518731 0.80953142 19.90373357 0.875 22.875 C0.88853516 24.050625 0.88853516 24.050625 0.90234375 25.25 C0.92571937 27.16680055 0.96158347 29.08344191 1 31 C2.65 31 4.3 31 6 31 C6 31.99 6 32.98 6 34 C0.06 34 -5.88 34 -12 34 C-12 33.01 -12 32.02 -12 31 C-10.35 31 -8.7 31 -7 31 C-7 23.08 -7 15.16 -7 7 C-8.65 6.67 -10.3 6.34 -12 6 C-12 5.01 -12 4.02 -12 3 C-10.37604003 2.49663233 -8.75079459 1.99741024 -7.125 1.5 C-6.22007812 1.2215625 -5.31515625 0.943125 -4.3828125 0.65625 C-2 0 -2 0 0 0 Z " fill="#636363" transform="translate(784,380)"/>
<path d="M0 0 C0.33 1.65 0.66 3.3 1 5 C1.598125 4.360625 2.19625 3.72125 2.8125 3.0625 C6.16227377 -0.09585813 9.39480438 -0.40176416 13.9296875 -0.3515625 C17.70535835 0.28958915 19.41909221 2.2302453 22 5 C23.0883995 8.0730324 23.11649587 10.9627099 23.09765625 14.203125 C23.09443359 15.1828125 23.09121094 16.1625 23.08789062 17.171875 C23.07532227 18.69554687 23.07532227 18.69554687 23.0625 20.25 C23.05798828 21.28125 23.05347656 22.3125 23.04882812 23.375 C23.03706088 25.91672573 23.02062011 28.45833319 23 31 C24.65 31 26.3 31 28 31 C28 31.99 28 32.98 28 34 C23.71 34 19.42 34 15 34 C15.02320313 32.38609375 15.04640625 30.7721875 15.0703125 29.109375 C15.08907168 26.98958796 15.10727172 24.86979591 15.125 22.75 C15.14175781 21.68652344 15.15851562 20.62304688 15.17578125 19.52734375 C15.18222656 18.50253906 15.18867187 17.47773438 15.1953125 16.421875 C15.20578613 15.47924805 15.21625977 14.53662109 15.22705078 13.56542969 C14.98673565 10.85012712 14.52620719 9.25056318 13 7 C9.61974978 5.9483666 7.59574109 5.82789702 4.1875 6.8125 C1.85799264 7.80675769 1.85799264 7.80675769 1 10 C0.84824451 11.59262066 0.75099675 13.19064856 0.68359375 14.7890625 C0.64169922 15.73007812 0.59980469 16.67109375 0.55664062 17.640625 C0.49766602 19.11789062 0.49766602 19.11789062 0.4375 20.625 C0.39431641 21.61757813 0.35113281 22.61015625 0.30664062 23.6328125 C0.20038931 26.08839838 0.09835036 28.54408703 0 31 C1.65 31 3.3 31 5 31 C5 31.66 5 32.32 5 33 C2.54220024 33.22126178 0.08472352 33.42750395 -2.375 33.625 C-3.42300781 33.72167969 -3.42300781 33.72167969 -4.4921875 33.8203125 C-6.32369111 33.96119739 -8.16312748 33.98761659 -10 34 C-10.66 33.34 -11.32 32.68 -12 32 C-10.68 31.67 -9.36 31.34 -8 31 C-7.24524649 22.64380043 -6.86394518 14.39004715 -7 6 C-8.65 5.67 -10.3 5.34 -12 5 C-12 4.34 -12 3.68 -12 3 C-10.56445975 2.49440092 -9.1264798 1.9957251 -7.6875 1.5 C-6.88699219 1.2215625 -6.08648438 0.943125 -5.26171875 0.65625 C-3 0 -3 0 0 0 Z " fill="#686868" transform="translate(521,380)"/>
<path d="M0 0 C3.46282261 2.43971593 4.67900019 4.94742177 5.75 8.9375 C6.0911471 12.59480798 6.03530494 16.2060609 5.9375 19.875 C5.91719727 21.3300293 5.91719727 21.3300293 5.89648438 22.81445312 C5.86138677 25.18939129 5.81222275 27.56314378 5.75 29.9375 C7.4 29.9375 9.05 29.9375 10.75 29.9375 C10.75 30.9275 10.75 31.9175 10.75 32.9375 C6.79 32.9375 2.83 32.9375 -1.25 32.9375 C-1.58 31.6175 -1.91 30.2975 -2.25 28.9375 C-3.7659375 30.175 -3.7659375 30.175 -5.3125 31.4375 C-9.04449728 34.10429158 -11.62401031 34.54847977 -16.25 33.9375 C-18.81454749 33.10575487 -19.87943805 32.39629099 -21.5625 30.3125 C-22.60885297 26.69782612 -22.29710488 23.48916654 -21.25 19.9375 C-17.77434153 14.54423686 -12.92283134 13.75643076 -6.9921875 12.41796875 C-4.25 11.9375 -4.25 11.9375 -1.25 11.9375 C-2.8827851 8.19082798 -2.8827851 8.19082798 -5.25 4.9375 C-6.93608966 4.86544489 -8.62500659 4.85363932 -10.3125 4.875 C-11.23160156 4.88402344 -12.15070313 4.89304687 -13.09765625 4.90234375 C-13.80792969 4.91394531 -14.51820313 4.92554688 -15.25 4.9375 C-15.58 6.5875 -15.91 8.2375 -16.25 9.9375 C-17.24 9.9375 -18.23 9.9375 -19.25 9.9375 C-19.625 7.1875 -19.625 7.1875 -19.25 3.9375 C-13.24850949 -0.99705886 -7.47998302 -2.44537906 0 0 Z M-8.25 16.25 C-8.930625 16.49363281 -9.61125 16.73726563 -10.3125 16.98828125 C-12.48918137 18.05467958 -13.78003459 19.00700745 -15.25 20.9375 C-15.1993338 25.28259216 -15.1993338 25.28259216 -13.25 28.9375 C-9.36893024 29.31067978 -6.86627278 29.22596811 -3.3125 27.5625 C-0.20205926 23.60375724 -0.83294206 19.79390796 -1.25 14.9375 C-4.09585459 14.9375 -5.63434028 15.28398931 -8.25 16.25 Z " fill="#676767" transform="translate(489.25,381.0625)"/>
<path d="M0 0 C3.71594345 1.6890652 5.85022711 3.55523319 8 7 C8.43237305 9.56542969 8.43237305 9.56542969 8.51171875 12.421875 C8.56489258 13.95908203 8.56489258 13.95908203 8.61914062 15.52734375 C8.64169922 16.59082031 8.66425781 17.65429688 8.6875 18.75 C8.73874023 20.36841797 8.73874023 20.36841797 8.79101562 22.01953125 C8.87340663 24.67958377 8.94258645 27.33931035 9 30 C10.32 30.33 11.64 30.66 13 31 C13 31.99 13 32.98 13 34 C9.04 34 5.08 34 1 34 C1 32.68 1 31.36 1 30 C0.01 30.825 -0.98 31.65 -2 32.5 C-6.23992005 35.51257477 -8.8663603 35.74520576 -14 35 C-17 33.5625 -17 33.5625 -19 31 C-19.92817028 26.59735159 -19.57150711 23.14301421 -17.5625 19.125 C-12.29208793 14.75441438 -5.66119126 13.70863737 1 13 C0.39816251 10.97954558 -0.27306096 8.97888961 -1 7 C-4.18783933 5.40608033 -7.55029167 5.33686588 -11 6 C-13.08216876 8.3549963 -13.08216876 8.3549963 -14 11 C-14.99 10.67 -15.98 10.34 -17 10 C-17 8.35 -17 6.7 -17 5 C-6.35544479 -0.99693252 -6.35544479 -0.99693252 0 0 Z M-10 19 C-12.33864696 21.19777678 -12.33864696 21.19777678 -13 24 C-12.33719617 26.43028072 -11.7989028 28.2010972 -10 30 C-5.96047499 30.56365465 -4.20171027 30.11579664 -0.625 28.0625 C1.3758865 26.25961789 1.94360224 25.35131106 2.375 22.6640625 C2.375 20.41164173 2.26305972 18.23600762 2 16 C-2.34167331 16 -6.07265141 17.17112338 -10 19 Z " fill="#636363" transform="translate(647,380)"/>
<path d="M0 0 C4.43814316 4.72447498 4.34472848 9.78498006 4.27734375 15.984375 C3.86662663 20.45020062 2.78825234 22.47799704 0 26 C-6.16318442 30.77961241 -11.37292877 31.79979926 -19 31 C-23.4170597 29.69155024 -26.10958997 27.38764699 -28.4375 23.4375 C-30.60239251 18.38294663 -30.90997928 13.39711847 -30 8 C-27.95021311 2.89233431 -25.13365251 -0.76225404 -20 -3 C-12.84087843 -5.71552887 -6.12704681 -4.13646248 0 0 Z M-21 2 C-23.7143786 6.19494874 -23.51546594 11.16750682 -23 16 C-22.03032649 20.3029262 -20.69590226 23.24767323 -17.6875 26.5 C-14.38217065 28.34483499 -12.72708781 28.69882896 -9 28 C-6.42714276 25.827365 -4.51003081 24.02006162 -3 21 C-2.39574049 13.23758935 -2.65690954 7.61664873 -7.3125 1.1875 C-12.12767115 -2.20095377 -16.39608799 -1.13903092 -21 2 Z " fill="#676767" transform="translate(758,384)"/>
<path d="M0 0 C9.24 0 18.48 0 28 0 C26.95744292 5.21278539 25.34053256 7.3699491 21.9375 11.125 C16.90035773 16.86062159 12.41063774 22.7585315 8 29 C13.61 29 19.22 29 25 29 C25.33 26.69 25.66 24.38 26 22 C26.99 22 27.98 22 29 22 C29.02688151 23.64574566 29.04634123 25.29161413 29.0625 26.9375 C29.07410156 27.85402344 29.08570313 28.77054687 29.09765625 29.71484375 C29 32 29 32 28 33 C25.70848583 33.08790975 23.41427476 33.10694038 21.12109375 33.09765625 C20.09110008 33.09553383 20.09110008 33.09553383 19.04029846 33.09336853 C16.83932199 33.08775479 14.63844591 33.07520007 12.4375 33.0625 C10.94856917 33.05748676 9.45963676 33.05292355 7.97070312 33.04882812 C4.31376925 33.03778093 0.65689442 33.02050713 -3 33 C-2.39806708 29.64258296 -1.24541247 27.75946274 0.94921875 25.171875 C1.55056641 24.45386719 2.15191406 23.73585938 2.77148438 22.99609375 C3.40376953 22.25488281 4.03605469 21.51367188 4.6875 20.75 C9.30279777 15.28540979 13.7751131 9.77391437 18 4 C13.1666528 3.91666643 8.76307437 4.04738513 4 5 C3.67 6.65 3.34 8.3 3 10 C2.01 10 1.02 10 0 10 C0 6.7 0 3.4 0 0 Z " fill="#6B6B6B" transform="translate(588,381)"/>
<path d="M0 0 C0.33 1.65 0.66 3.3 1 5 C1.886875 4.175 2.77375 3.35 3.6875 2.5 C5.96925434 0.58592171 6.77043656 0.03060846 9.8125 -0.375 C12 0 12 0 13 1 C13.07179964 2.51928038 13.08392007 4.04167482 13.0625 5.5625 C13.05347656 6.38878906 13.04445313 7.21507812 13.03515625 8.06640625 C13.02355469 8.70449219 13.01195312 9.34257812 13 10 C12.39671875 9.84660156 11.7934375 9.69320313 11.171875 9.53515625 C8.79358035 8.9491376 6.40412313 8.46746839 4 8 C2.07136286 9.84258246 1.07990406 11.34878977 0.75244141 14.01757812 C0.70494505 16.43427459 0.73888696 18.83398212 0.8125 21.25 C0.82603516 22.09046875 0.83957031 22.9309375 0.85351562 23.796875 C0.88876536 25.86485938 0.9425698 27.93251271 1 30 C2.98 30.33 4.96 30.66 7 31 C7 31.99 7 32.98 7 34 C0.4 34 -6.2 34 -13 34 C-13 33.01 -13 32.02 -13 31 C-11.02 31 -9.04 31 -7 31 C-7 22.75 -7 14.5 -7 6 C-8.98 6 -10.96 6 -13 6 C-13 5.01 -13 4.02 -13 3 C-11.39743892 2.49487756 -9.79288208 1.99608373 -8.1875 1.5 C-7.29417969 1.2215625 -6.40085937 0.943125 -5.48046875 0.65625 C-3 0 -3 0 0 0 Z " fill="#6C6C6C" transform="translate(398,380)"/>
<path d="M0 0 C0 3.96 0 7.92 0 12 C2.97 12.33 5.94 12.66 9 13 C9 14.32 9 15.64 9 17 C5.7 17 2.4 17 -1 17 C-0.8859425 19.91747073 -0.75919732 22.83344495 -0.625 25.75 C-0.5940625 26.575 -0.563125 27.4 -0.53125 28.25 C-0.49257813 29.04921875 -0.45390625 29.8484375 -0.4140625 30.671875 C-0.3826416 31.4050293 -0.3512207 32.13818359 -0.31884766 32.89355469 C0.03772523 35.24922918 0.83662883 36.93450591 2 39 C4.97 38.505 4.97 38.505 8 38 C8.33 38.66 8.66 39.32 9 40 C6.2144018 43.37648267 4.85385691 44.88016043 0.4375 45.5 C-3.19635612 44.97143911 -4.45233287 44.55557274 -7 42 C-7.45410156 39.45629883 -7.45410156 39.45629883 -7.390625 36.45703125 C-7.37773438 35.38388672 -7.36484375 34.31074219 -7.3515625 33.20507812 C-7.31804688 32.08552734 -7.28453125 30.96597656 -7.25 29.8125 C-7.23195313 28.68134766 -7.21390625 27.55019531 -7.1953125 26.38476562 C-7.14812652 23.58899624 -7.08230595 20.79492028 -7 18 C-8.98 18 -10.96 18 -13 18 C-13 17.01 -13 16.02 -13 15 C-11.35 14.34 -9.7 13.68 -8 13 C-8.05800781 12.31292969 -8.11601563 11.62585938 -8.17578125 10.91796875 C-8.31157397 8.2059942 -8.35570073 5.69378239 -8 3 C-5.16973341 0.39921448 -3.82254857 0 0 0 Z " fill="#656565" transform="translate(682,370)"/>
<path d="M0 0 C0.65043638 10.3489074 1.16494885 20.6265501 1 31 C2.65 31.33 4.3 31.66 6 32 C6 32.66 6 33.32 6 34 C4.35 34 2.7 34 1 34 C1 38.29 1 42.58 1 47 C0.67 47 0.34 47 0 47 C0 42.71 0 38.42 0 34 C-1.98 34 -3.96 34 -6 34 C-6 37.96 -6 41.92 -6 46 C-6.33 46 -6.66 46 -7 46 C-7 42.04 -7 38.08 -7 34 C-8.98 34 -10.96 34 -13 34 C-12.67 33.01 -12.34 32.02 -12 31 C-9.9375 30.3125 -9.9375 30.3125 -8 30 C-7.90071918 22.24506486 -7.93940512 14.68931285 -9 7 C-10.32 6.67 -11.64 6.34 -13 6 C-13 5.01 -13 4.02 -13 3 C-8.76915382 1.13345022 -4.65260883 0 0 0 Z " fill="#626B73" transform="translate(570,380)"/>
<path d="M0 0 C0 9.57 0 19.14 0 29 C1.65 29.33 3.3 29.66 5 30 C5 30.99 5 31.98 5 33 C-0.94 33 -6.88 33 -13 33 C-13 32.01 -13 31.02 -13 30 C-11.35 30 -9.7 30 -8 30 C-8 21.75 -8 13.5 -8 5 C-9.98 5 -11.96 5 -14 5 C-14 4.01 -14 3.02 -14 2 C-12.23225581 1.46877637 -10.46065917 0.95035927 -8.6875 0.4375 C-7.70136719 0.14746094 -6.71523438 -0.14257812 -5.69921875 -0.44140625 C-3 -1 -3 -1 0 0 Z " fill="#6B6B6B" transform="translate(713,381)"/>
<path d="M0 0 C0 1.98 0 3.96 0 6 C0.66 6 1.32 6 2 6 C1.67 13.92 1.34 21.84 1 30 C2.65 30 4.3 30 6 30 C6 30.66 6 31.32 6 32 C3.54220024 32.22126178 1.08472352 32.42750395 -1.375 32.625 C-2.42300781 32.72167969 -2.42300781 32.72167969 -3.4921875 32.8203125 C-5.32369111 32.96119739 -7.16312748 32.98761659 -9 33 C-9.66 32.34 -10.32 31.68 -11 31 C-9.68 30.67 -8.36 30.34 -7 30 C-6.24524649 21.64380043 -5.86394518 13.39004715 -6 5 C-7.65 4.67 -9.3 4.34 -11 4 C-11 3.34 -11 2.68 -11 2 C-7.17679443 0.57741188 -4.08718695 -0.24042276 0 0 Z " fill="#5C6061" transform="translate(520,381)"/>
<path d="M0 0 C2.33909307 3.5086396 2.41291057 4.87089433 2 9 C0.33237678 12.49406769 -0.74006022 13.82670681 -4 16 C-6.9375 16.4375 -6.9375 16.4375 -10 16 C-12.4375 13.9375 -12.4375 13.9375 -14 11 C-14 6.91632497 -13.65876935 4.80752372 -11.0625 1.625 C-7.12990839 -1.47340551 -4.86925545 -1.04341188 0 0 Z " fill="#1B6AB2" transform="translate(405,88)"/>
<path d="M0 0 C0.33 0 0.66 0 1 0 C1 2.31 1 4.62 1 7 C0.15695312 7.21914063 -0.68609375 7.43828125 -1.5546875 7.6640625 C-2.65039062 7.98117187 -3.74609375 8.29828125 -4.875 8.625 C-6.51082031 9.07746094 -6.51082031 9.07746094 -8.1796875 9.5390625 C-11.25151207 10.78299023 -11.25151207 10.78299023 -12.5078125 13.9609375 C-13.38069257 17.16626272 -13.38069257 17.16626272 -11 20 C-6.88016718 20.37453026 -3.04767571 19.77098585 1 19 C-5.69259606 25.87347704 -5.69259606 25.87347704 -10.875 26.375 C-13.86103397 26.27032353 -15.21168353 25.89856831 -18 24.5625 C-20.5429734 21.30431534 -20.67235889 19.23510167 -20.40625 15.18359375 C-19.76067369 11.71362111 -18.7189722 10.25475743 -16 8 C-10.87140994 5.64362078 -5.5806613 4.59368737 0 4 C0 2.68 0 1.36 0 0 Z " fill="#6B6B6B" transform="translate(648,389)"/>
<path d="M0 0 C1.92903132 0.2759478 3.8689032 0.48449903 5.8125 0.625 C7.27623047 0.73714844 7.27623047 0.73714844 8.76953125 0.8515625 C9.50558594 0.90054687 10.24164063 0.94953125 11 1 C10.34 2.32 9.68 3.64 9 5 C7.02 5 5.04 5 3 5 C3.103125 6.19625 3.20625 7.3925 3.3125 8.625 C3.34355513 12.11559679 2.7614318 13.83724368 0.5 16.5 C-0.325 17.325 -1.15 18.15 -2 19 C-3.32 18.67 -4.64 18.34 -6 18 C-5.62875 16.80375 -5.2575 15.6075 -4.875 14.375 C-3.8798659 10.30071909 -3.89364524 7.77388561 -6 4 C-9.0005907 2.08160141 -9.0005907 2.08160141 -12 1 C-12 0.34 -12 -0.32 -12 -1 C-7.06252618 -1.96813212 -4.57127957 -1.85027983 0 0 Z " fill="#676767" transform="translate(448,382)"/>
<path d="M0 0 C-0.95421808 1.14926266 -1.91352045 2.29430541 -2.875 3.4375 C-3.40867188 4.07558594 -3.94234375 4.71367188 -4.4921875 5.37109375 C-6 7 -6 7 -8 8 C-9.6696807 8.01614884 -11.34028286 7.96515778 -13.0078125 7.87890625 C-13.99394531 7.83056641 -14.98007813 7.78222656 -15.99609375 7.73242188 C-17.54490234 7.64831055 -17.54490234 7.64831055 -19.125 7.5625 C-20.16527344 7.51029297 -21.20554688 7.45808594 -22.27734375 7.40429688 C-24.85185116 7.27439054 -27.42599296 7.13941748 -30 7 C-19.93225944 -0.64571547 -12.21989585 -1.66559984 0 0 Z " fill="#147DA7" transform="translate(168,64)"/>
<path d="M0 0 C-0.78375 0.7425 -1.5675 1.485 -2.375 2.25 C-5.23128627 4.97242945 -5.23128627 4.97242945 -7 9 C-12.94 9.33 -18.88 9.66 -25 10 C-23.35 8.68 -21.7 7.36 -20 6 C-19.23300781 5.35417969 -18.46601563 4.70835937 -17.67578125 4.04296875 C-11.54426306 -0.77103314 -7.60433812 -1.92535369 0 0 Z " fill="#1780A9" transform="translate(481,520)"/>
<path d="M0 0 C0.99 0 1.98 0 3 0 C3.33 1.65 3.66 3.3 4 5 C4.886875 4.175 5.77375 3.35 6.6875 2.5 C8.96925434 0.58592171 9.77043656 0.03060846 12.8125 -0.375 C15 0 15 0 16 1 C16.07179964 2.51928038 16.08392007 4.04167482 16.0625 5.5625 C16.05347656 6.38878906 16.04445313 7.21507812 16.03515625 8.06640625 C16.02355469 8.70449219 16.01195312 9.34257812 16 10 C13.80692353 9.45522304 11.62016282 8.89809246 9.4375 8.3125 C6.74474036 7.69639239 6.74474036 7.69639239 4 10 C4 9.34 4 8.68 4 8 C3.34 8 2.68 8 2 8 C2 5.69 2 3.38 2 1 C1.34 0.67 0.68 0.34 0 0 Z " fill="#6D6D6D" transform="translate(395,380)"/>
<path d="M0 0 C0.99 0 1.98 0 3 0 C3.02688151 1.64574566 3.04634123 3.29161413 3.0625 4.9375 C3.07410156 5.85402344 3.08570313 6.77054687 3.09765625 7.71484375 C3 10 3 10 2 11 C-0.29151417 11.08790975 -2.58572524 11.10694038 -4.87890625 11.09765625 C-5.90889992 11.09553383 -5.90889992 11.09553383 -6.95970154 11.09336853 C-9.16067801 11.08775479 -11.36155409 11.07520007 -13.5625 11.0625 C-15.05143083 11.05748676 -16.54036324 11.05292355 -18.02929688 11.04882812 C-21.68623075 11.03778093 -25.34310558 11.02050713 -29 11 C-28.67 10.01 -28.34 9.02 -28 8 C-28 8.66 -28 9.32 -28 10 C-24.70762945 9.89040282 -21.41643113 9.75971069 -18.125 9.625 C-17.18785156 9.5940625 -16.25070312 9.563125 -15.28515625 9.53125 C-13.94130859 9.47324219 -13.94130859 9.47324219 -12.5703125 9.4140625 C-11.74289551 9.3826416 -10.91547852 9.3512207 -10.06298828 9.31884766 C-7.78013915 9.17400863 -7.78013915 9.17400863 -6 7 C-3.375 6.875 -3.375 6.875 -1 7 C-0.67 4.69 -0.34 2.38 0 0 Z " fill="#787878" transform="translate(614,403)"/>
<path d="M0 0 C2.5625 0.1875 2.5625 0.1875 4.5625 2.1875 C4.00694444 6.74305556 4.00694444 6.74305556 2.5625 8.1875 C0.125 8.375 0.125 8.375 -2.4375 8.1875 C-3.0975 7.5275 -3.7575 6.8675 -4.4375 6.1875 C-3.71780303 0.28598485 -3.71780303 0.28598485 0 0 Z " fill="#6D6D6D" transform="translate(708.4375,364.8125)"/>
<path d="M0 0 C0.625 1.8125 0.625 1.8125 1 4 C0.01 5.485 0.01 5.485 -1 7 C-3.5 7.3125 -3.5 7.3125 -6 7 C-6.66 6.34 -7.32 5.68 -8 5 C-7.75 2.4375 -7.75 2.4375 -7 0 C-4.3333581 -1.33332095 -2.83319697 -0.67102033 0 0 Z " fill="#5F6264" transform="translate(570,366)"/>
<path d="M0 0 C6.27 0 12.54 0 19 0 C14.86179015 2.75880657 10.91216261 2.72551432 6.03125 3.2421875 C2.8977017 3.73066216 2.8977017 3.73066216 1.09375 6.0703125 C0.7328125 6.70710938 0.371875 7.34390625 0 8 C0 5.36 0 2.72 0 0 Z " fill="#606060" transform="translate(589,382)"/>
<path d="M0 0 C0.66 0.33 1.32 0.66 2 1 C1.67 1.33 1.34 1.66 1 2 C3.97 2.495 3.97 2.495 7 3 C7 3.33 7 3.66 7 4 C5.741875 4.061875 4.48375 4.12375 3.1875 4.1875 C0.99662023 4.38520288 0.99662023 4.38520288 -1 5 C-3.06454002 7.40743101 -3.06454002 7.40743101 -4 10 C-4.99 9.67 -5.98 9.34 -7 9 C-7 7.35 -7 5.7 -7 4 C-1.7265625 0.77734375 -1.7265625 0.77734375 0 0 Z " fill="#838383" transform="translate(637,381)"/>
<path d="M0 0 C0.66 0.33 1.32 0.66 2 1 C1.67 1.33 1.34 1.66 1 2 C3.97 2.495 3.97 2.495 7 3 C7 3.33 7 3.66 7 4 C2.545 4.495 2.545 4.495 -2 5 C-2.33 6.65 -2.66 8.3 -3 10 C-3.99 10 -4.98 10 -6 10 C-6.375 7.25 -6.375 7.25 -6 4 C-3 1.625 -3 1.625 0 0 Z " fill="#767676" transform="translate(476,381)"/>
<path d="M0 0 C1.00109515 3.31070838 1.10356134 6.30084769 1.0625 9.75 C1.05347656 10.73484375 1.04445313 11.7196875 1.03515625 12.734375 C1.02355469 13.48203125 1.01195312 14.2296875 1 15 C0.67 15 0.34 15 0 15 C0 12.03 0 9.06 0 6 C-2.97 6.66 -5.94 7.32 -9 8 C-9 7.34 -9 6.68 -9 6 C-9.66 5.67 -10.32 5.34 -11 5 C-5.555 4.01 -5.555 4.01 0 3 C0 2.01 0 1.02 0 0 Z " fill="#858585" transform="translate(488,390)"/>
<path d="M0 0 C0.33 0 0.66 0 1 0 C1 2.31 1 4.62 1 7 C-2.96 7.99 -6.92 8.98 -11 10 C-11 8.68 -11 7.36 -11 6 C-5.555 5.01 -5.555 5.01 0 4 C0 2.68 0 1.36 0 0 Z " fill="#808080" transform="translate(648,389)"/>
<path d="M0 0 C0.99 0 1.98 0 3 0 C3.33 1.65 3.66 3.3 4 5 C5.32 3.68 6.64 2.36 8 1 C8.66 1.33 9.32 1.66 10 2 C9.34 2.66 8.68 3.32 8 4 C8.33 4.66 8.66 5.32 9 6 C6.625 7.0625 6.625 7.0625 4 8 C3.34 7.67 2.68 7.34 2 7 C2 5.02 2 3.04 2 1 C1.34 0.67 0.68 0.34 0 0 Z " fill="#919191" transform="translate(518,380)"/>
<path d="M0 0 C0.66 0.33 1.32 0.66 2 1 C-1.3 4.3 -4.6 7.6 -8 11 C-8.66 10.67 -9.32 10.34 -10 10 C-7.02911382 6.00073014 -3.87051275 3.07881696 0 0 Z " fill="#5A92C6" transform="translate(431,129)"/>
<path d="M0 0 C0.66 0.33 1.32 0.66 2 1 C1.34 1.804375 0.68 2.60875 0 3.4375 C-2.10254514 5.58961915 -2.10254514 5.58961915 -2 7 C-3.98 7 -5.96 7 -8 7 C-5.4837822 4.39391727 -2.94865641 2.10618315 0 0 Z " fill="#3F769E" transform="translate(522,506)"/>
<path d="M0 0 C0.66 0.33 1.32 0.66 2 1 C1.67 1.33 1.34 1.66 1 2 C3.97 2.495 3.97 2.495 7 3 C7 3.33 7 3.66 7 4 C5.56465159 4.2226746 4.12654475 4.42761906 2.6875 4.625 C1.88699219 4.74101562 1.08648437 4.85703125 0.26171875 4.9765625 C-2 5 -2 5 -5 3 C-2.625 1.4375 -2.625 1.4375 0 0 Z " fill="#8C8C8C" transform="translate(476,381)"/>
<path d="M0 0 C0.66 0 1.32 0 2 0 C2.33 1.65 2.66 3.3 3 5 C3.99 4.01 4.98 3.02 6 2 C6.66 2.33 7.32 2.66 8 3 C6.515 5.475 6.515 5.475 5 8 C3.68 7.67 2.36 7.34 1 7 C0.67 4.69 0.34 2.38 0 0 Z " fill="#838383" transform="translate(782,380)"/>
<path d="M0 0 C0.99 0 1.98 0 3 0 C3.144375 0.78375 3.28875 1.5675 3.4375 2.375 C3.87798925 4.96421018 3.87798925 4.96421018 5 7 C5.66 7.33 6.32 7.66 7 8 C6.01 8.66 5.02 9.32 4 10 C4 9.34 4 8.68 4 8 C3.34 8 2.68 8 2 8 C2 5.69 2 3.38 2 1 C1.34 0.67 0.68 0.34 0 0 Z " fill="#969696" transform="translate(395,380)"/>
<path d="M0 0 C0.66 0.33 1.32 0.66 2 1 C-0.31 3.31 -2.62 5.62 -5 8 C-5.33 7.34 -5.66 6.68 -6 6 C-4 4 -2 2 0 0 Z " fill="#767676" transform="translate(736,382)"/>
<path d="M0 0 C0.66 0.33 1.32 0.66 2 1 C1.67 1.33 1.34 1.66 1 2 C1.66 2.66 2.32 3.32 3 4 C1.02 4.33 -0.96 4.66 -3 5 C-3 3.68 -3 2.36 -3 1 C-2.01 0.67 -1.02 0.34 0 0 Z " fill="#8A8A8A" transform="translate(358,409)"/>
<path d="" fill="#FFFFFF" transform="translate(0,0)"/>
</svg>
